<?xml version="1.0" encoding="UTF-8"?>
<!DOCTYPE svg PUBLIC "-//W3C//DTD SVG 1.1//EN" "http://www.w3.org/Graphics/SVG/1.1/DTD/svg11.dtd">
<svg xmlns="http://www.w3.org/2000/svg" version="1.1" width="87px" height="121px" style="shape-rendering:geometricPrecision; text-rendering:geometricPrecision; image-rendering:optimizeQuality; fill-rule:evenodd; clip-rule:evenodd" xmlns:xlink="http://www.w3.org/1999/xlink">
<g><path style="opacity:1" fill="#fcfefc" d="M -0.5,-0.5 C 10.1667,-0.5 20.8333,-0.5 31.5,-0.5C 10.5114,5.79691 2.01138,19.7969 6,41.5C 8.07428,46.4749 11.2409,50.6416 15.5,54C 3.32093,62.5366 -0.845736,74.0366 3,88.5C 4.51192,93.5666 6.67859,98.2333 9.5,102.5C 11.5797,106.086 14.2463,109.253 17.5,112C 22.9902,115.412 28.6569,118.245 34.5,120.5C 22.8333,120.5 11.1667,120.5 -0.5,120.5C -0.5,80.1667 -0.5,39.8333 -0.5,-0.5 Z"/></g>
<g><path style="opacity:1" fill="#89e589" d="M 31.5,-0.5 C 39.8333,-0.5 48.1667,-0.5 56.5,-0.5C 70.9277,3.59447 79.9277,12.9278 83.5,27.5C 81.4524,36.9154 76.7857,44.9154 69.5,51.5C 70.4669,52.984 71.8002,53.984 73.5,54.5C 79.0386,60.244 83.0386,66.9107 85.5,74.5C 80.5991,104.194 62.9325,117.694 32.5,115C 27.2833,113.451 22.2833,111.451 17.5,109C 14.6238,106.825 12.1238,104.325 10,101.5C 9.60123,101.728 9.43456,102.062 9.5,102.5C 6.67859,98.2333 4.51192,93.5666 3,88.5C -0.845736,74.0366 3.32093,62.5366 15.5,54C 11.2409,50.6416 8.07428,46.4749 6,41.5C 2.01138,19.7969 10.5114,5.79691 31.5,-0.5 Z"/></g>
<g><path style="opacity:1" fill="#fbfefb" d="M 56.5,-0.5 C 66.5,-0.5 76.5,-0.5 86.5,-0.5C 86.5,24.8333 86.5,50.1667 86.5,75.5C 85.8333,75.5 85.5,75.1667 85.5,74.5C 83.0386,66.9107 79.0386,60.244 73.5,54.5C 81.9393,47.5274 85.2727,38.5274 83.5,27.5C 79.9277,12.9278 70.9277,3.59447 56.5,-0.5 Z"/></g>
<g><path style="opacity:1" fill="#a8eda8" d="M 26.5,4.5 C 32.5092,4.33385 38.5092,4.50051 44.5,5C 32.5025,5.58642 22.3358,10.0864 14,18.5C 11.8824,23.7433 11.2157,23.41 12,17.5C 14.549,10.4428 19.3824,6.10945 26.5,4.5 Z"/></g>
<g><path style="opacity:1" fill="#6fd872" d="M 48.5,25.5 C 40.1734,23.9786 35.5067,27.312 34.5,35.5C 33.8826,35.3893 33.3826,35.056 33,34.5C 31.0306,24.9052 34.864,20.0719 44.5,20C 46.5,21.6667 48.5,23.3333 50.5,25C 49.9056,25.4643 49.2389,25.631 48.5,25.5 Z"/></g>
<g><path style="opacity:1" fill="#fbfdfb" d="M 48.5,25.5 C 54.7853,29.762 55.1187,34.5954 49.5,40C 42.9393,43.0767 37.9393,41.5767 34.5,35.5C 35.5067,27.312 40.1734,23.9786 48.5,25.5 Z"/></g>
<g><path style="opacity:1" fill="#71d975" d="M 83.5,27.5 C 85.2727,38.5274 81.9393,47.5274 73.5,54.5C 71.8002,53.984 70.4669,52.984 69.5,51.5C 76.7857,44.9154 81.4524,36.9154 83.5,27.5 Z"/></g>
<g><path style="opacity:1" fill="#a8eda8" d="M 13.5,59.5 C 14.2389,59.369 14.9056,59.5357 15.5,60C 10.4185,64.7463 7.58516,70.5796 7,77.5C 5.54321,74.634 5.20988,71.634 6,68.5C 8.33472,65.3347 10.8347,62.3347 13.5,59.5 Z"/></g>
<g><path style="opacity:1" fill="#6fd873" d="M 47.5,70.5 C 39.7351,69.6089 35.0685,72.9422 33.5,80.5C 32.71,81.6085 32.21,82.9419 32,84.5C 28.7313,76.8071 30.5647,70.6404 37.5,66C 42.2152,64.6213 46.2152,65.6213 49.5,69C 48.9558,69.7172 48.2891,70.2172 47.5,70.5 Z"/></g>
<g><path style="opacity:1" fill="#fcfefc" d="M 47.5,70.5 C 56.5051,75.6364 57.8384,82.4697 51.5,91C 40.1445,96.4923 34.1445,92.9923 33.5,80.5C 35.0685,72.9422 39.7351,69.6089 47.5,70.5 Z"/></g>
<g><path style="opacity:1" fill="#fafdfa" d="M 86.5,89.5 C 86.5,99.8333 86.5,110.167 86.5,120.5C 74.5,120.5 62.5,120.5 50.5,120.5C 68.6839,117.314 80.6839,106.981 86.5,89.5 Z"/></g>
<g><path style="opacity:1" fill="#6dd771" d="M 85.5,74.5 C 85.5,75.1667 85.8333,75.5 86.5,75.5C 86.5,80.1667 86.5,84.8333 86.5,89.5C 80.6839,106.981 68.6839,117.314 50.5,120.5C 45.1667,120.5 39.8333,120.5 34.5,120.5C 28.6569,118.245 22.9902,115.412 17.5,112C 14.2463,109.253 11.5797,106.086 9.5,102.5C 9.43456,102.062 9.60123,101.728 10,101.5C 12.1238,104.325 14.6238,106.825 17.5,109C 22.2833,111.451 27.2833,113.451 32.5,115C 62.9325,117.694 80.5991,104.194 85.5,74.5 Z"/></g>
</svg>
