<?xml version="1.0" encoding="UTF-8"?>
<!DOCTYPE svg PUBLIC "-//W3C//DTD SVG 1.1//EN" "http://www.w3.org/Graphics/SVG/1.1/DTD/svg11.dtd">
<svg xmlns="http://www.w3.org/2000/svg" version="1.1" width="171px" height="98px" style="shape-rendering:geometricPrecision; text-rendering:geometricPrecision; image-rendering:optimizeQuality; fill-rule:evenodd; clip-rule:evenodd" xmlns:xlink="http://www.w3.org/1999/xlink">
<g><path style="opacity:1" fill="#fbfbfb" d="M -0.5,-0.5 C 56.5,-0.5 113.5,-0.5 170.5,-0.5C 170.5,32.1667 170.5,64.8333 170.5,97.5C 161.5,97.5 152.5,97.5 143.5,97.5C 143.334,92.1563 143.501,86.8229 144,81.5C 151.323,72.8924 154.323,62.8924 153,51.5C 156,44.8333 159,38.1667 162,31.5C 165.542,21.7237 162.709,18.8904 153.5,23C 150.602,26.9046 148.102,31.0713 146,35.5C 147.427,26.5856 148.094,17.5856 148,8.5C 143.705,5.49388 140.039,6.16054 137,10.5C 133.699,19.5759 131.533,28.9093 130.5,38.5C 129.513,33.6946 129.179,28.6946 129.5,23.5C 129.666,17.4908 129.499,11.4908 129,5.5C 122.439,-0.514514 117.773,0.818819 115,9.5C 114.667,19.1667 114.333,28.8333 114,38.5C 112.199,30.1019 110.199,21.7685 108,13.5C 100.833,7.17541 96.6659,8.84208 95.5,18.5C 97.1841,31.1987 98.8508,43.8653 100.5,56.5C 96.6076,55.5539 92.9409,54.0539 89.5,52C 85.3749,51.1462 81.3749,51.4796 77.5,53C 73.5,56.6667 73.5,60.3333 77.5,64C 86.217,66.4343 92.717,71.601 97,79.5C 99.7273,82.7306 102.894,85.3972 106.5,87.5C 107.401,90.795 107.401,94.1283 106.5,97.5C 90.1667,97.5 73.8333,97.5 57.5,97.5C 56.9209,93.7624 56.9209,90.0957 57.5,86.5C 68.3036,81.5589 72.8036,73.2256 71,61.5C 69.431,57.928 67.0976,54.928 64,52.5C 64.0566,42.7632 65.0566,33.0965 67,23.5C 67.9956,18.7712 67.4956,14.2712 65.5,10C 60.8392,7.57686 57.3392,8.74353 55,13.5C 53.1805,20.1097 51.6805,26.7764 50.5,33.5C 49.8333,26.8333 49.1667,20.1667 48.5,13.5C 49.5006,6.77262 46.8339,2.43929 40.5,0.5C 38.8129,0.760499 37.3129,1.42717 36,2.5C 34.7071,14.4041 34.0404,26.4041 34,38.5C 32.1499,28.2829 29.4832,18.2829 26,8.5C 22.952,4.9905 19.6187,4.65716 16,7.5C 15.3587,17.7035 16.5254,27.7035 19.5,37.5C 19.1667,38.1667 18.8333,38.8333 18.5,39.5C 12.4843,37.8349 9.15098,40.1682 8.5,46.5C 10.602,55.0664 12.4353,63.733 14,72.5C 15.5134,75.5244 17.5134,78.1911 20,80.5C 20.4994,86.1569 20.6661,91.8236 20.5,97.5C 13.5,97.5 6.5,97.5 -0.5,97.5C -0.5,64.8333 -0.5,32.1667 -0.5,-0.5 Z"/></g>
<g><path style="opacity:1" fill="#221f1c" d="M 129.5,23.5 C 128.185,28.6803 128.185,34.0136 129.5,39.5C 130.107,39.3764 130.44,39.0431 130.5,38.5C 131.533,28.9093 133.699,19.5759 137,10.5C 140.039,6.16054 143.705,5.49388 148,8.5C 148.094,17.5856 147.427,26.5856 146,35.5C 148.102,31.0713 150.602,26.9046 153.5,23C 162.709,18.8904 165.542,21.7237 162,31.5C 159,38.1667 156,44.8333 153,51.5C 154.323,62.8924 151.323,72.8924 144,81.5C 143.501,86.8229 143.334,92.1563 143.5,97.5C 142.833,97.5 142.167,97.5 141.5,97.5C 140.627,93.2315 140.294,88.8982 140.5,84.5C 139.325,84.719 138.325,84.3857 137.5,83.5C 149.224,74.3253 152.891,62.6586 148.5,48.5C 149.698,48.0604 150.865,47.727 152,47.5C 155.361,40.4165 158.528,33.2498 161.5,26C 160.591,23.6807 158.925,23.0141 156.5,24C 151.372,29.7471 147.372,36.2471 144.5,43.5C 141.984,44.3955 139.651,43.8955 137.5,42C 138.793,41.51 140.127,41.3433 141.5,41.5C 143.798,31.247 145.298,20.9137 146,10.5C 145.261,9.42575 144.261,8.75908 143,8.5C 140.679,9.48722 139.013,11.1539 138,13.5C 135.907,22.4826 133.907,31.4826 132,40.5C 131.626,41.4162 131.126,42.2496 130.5,43C 128.098,43.8141 125.765,43.6474 123.5,42.5C 124.325,41.6143 125.325,41.281 126.5,41.5C 127.2,30.1707 127.367,18.8374 127,7.5C 124.182,3.5764 121.182,3.5764 118,7.5C 117.667,18.1667 117.333,28.8333 117,39.5C 114.845,41.1672 112.345,42.1672 109.5,42.5C 109.167,42.1667 108.833,41.8333 108.5,41.5C 109.325,40.6143 110.325,40.281 111.5,40.5C 110.434,32.7728 108.934,25.1062 107,17.5C 106.23,13.7104 104.063,11.877 100.5,12C 100,12.5 99.5,13 99,13.5C 99.2746,27.0971 100.775,40.5971 103.5,54C 103.167,55.1667 102.833,56.3333 102.5,57.5C 100.232,58.5443 97.8991,58.711 95.5,58C 90.2503,54.5404 84.5837,53.7071 78.5,55.5C 75.9199,57.713 75.9199,59.8797 78.5,62C 82.1667,63.6667 85.8333,65.3333 89.5,67C 94.4023,72.146 99.069,77.4794 103.5,83C 107.29,84.8105 111.29,85.9771 115.5,86.5C 113.977,88.2825 111.977,88.9492 109.5,88.5C 109.5,91.5 109.5,94.5 109.5,97.5C 108.5,97.5 107.5,97.5 106.5,97.5C 107.401,94.1283 107.401,90.795 106.5,87.5C 102.894,85.3972 99.7273,82.7306 97,79.5C 92.717,71.601 86.217,66.4343 77.5,64C 73.5,60.3333 73.5,56.6667 77.5,53C 81.3749,51.4796 85.3749,51.1462 89.5,52C 92.9409,54.0539 96.6076,55.5539 100.5,56.5C 98.8508,43.8653 97.1841,31.1987 95.5,18.5C 96.6659,8.84208 100.833,7.17541 108,13.5C 110.199,21.7685 112.199,30.1019 114,38.5C 114.333,28.8333 114.667,19.1667 115,9.5C 117.773,0.818819 122.439,-0.514514 129,5.5C 129.499,11.4908 129.666,17.4908 129.5,23.5 Z"/></g>
<g><path style="opacity:1" fill="#f6cea9" d="M 141.5,97.5 C 130.833,97.5 120.167,97.5 109.5,97.5C 109.5,94.5 109.5,91.5 109.5,88.5C 111.977,88.9492 113.977,88.2825 115.5,86.5C 111.29,85.9771 107.29,84.8105 103.5,83C 99.069,77.4794 94.4023,72.146 89.5,67C 85.8333,65.3333 82.1667,63.6667 78.5,62C 75.9199,59.8797 75.9199,57.713 78.5,55.5C 84.5837,53.7071 90.2503,54.5404 95.5,58C 97.8991,58.711 100.232,58.5443 102.5,57.5C 102.833,56.3333 103.167,55.1667 103.5,54C 100.775,40.5971 99.2746,27.0971 99,13.5C 99.5,13 100,12.5 100.5,12C 104.063,11.877 106.23,13.7104 107,17.5C 108.934,25.1062 110.434,32.7728 111.5,40.5C 110.325,40.281 109.325,40.6143 108.5,41.5C 108.833,41.8333 109.167,42.1667 109.5,42.5C 112.345,42.1672 114.845,41.1672 117,39.5C 117.333,28.8333 117.667,18.1667 118,7.5C 121.182,3.5764 124.182,3.5764 127,7.5C 127.367,18.8374 127.2,30.1707 126.5,41.5C 125.325,41.281 124.325,41.6143 123.5,42.5C 125.765,43.6474 128.098,43.8141 130.5,43C 131.126,42.2496 131.626,41.4162 132,40.5C 133.907,31.4826 135.907,22.4826 138,13.5C 139.013,11.1539 140.679,9.48722 143,8.5C 144.261,8.75908 145.261,9.42575 146,10.5C 145.298,20.9137 143.798,31.247 141.5,41.5C 140.127,41.3433 138.793,41.51 137.5,42C 139.651,43.8955 141.984,44.3955 144.5,43.5C 147.372,36.2471 151.372,29.7471 156.5,24C 158.925,23.0141 160.591,23.6807 161.5,26C 158.528,33.2498 155.361,40.4165 152,47.5C 150.865,47.727 149.698,48.0604 148.5,48.5C 152.891,62.6586 149.224,74.3253 137.5,83.5C 138.325,84.3857 139.325,84.719 140.5,84.5C 140.294,88.8982 140.627,93.2315 141.5,97.5 Z"/></g>
<g><path style="opacity:1" fill="#1d1915" d="M 105.5,60.5 C 115.001,58.6102 123.167,61.2769 130,68.5C 130.97,70.2738 131.804,72.1072 132.5,74C 132.15,75.2575 131.483,75.5908 130.5,75C 129.505,71.3457 127.505,68.3457 124.5,66C 118.23,63.7547 111.896,61.9214 105.5,60.5 Z"/></g>
<g><path style="opacity:1" fill="#171411" d="M 106.5,53.5 C 117.963,52.4105 128.963,54.0772 139.5,58.5C 138.833,58.8333 138.167,59.1667 137.5,59.5C 127.012,56.818 116.679,54.818 106.5,53.5 Z"/></g>
<g><path style="opacity:1" fill="#676767" d="M 129.5,23.5 C 129.179,28.6946 129.513,33.6946 130.5,38.5C 130.44,39.0431 130.107,39.3764 129.5,39.5C 128.185,34.0136 128.185,28.6803 129.5,23.5 Z"/></g>
<g><path style="opacity:1" fill="#1b1917" d="M 48.5,13.5 C 48.3336,21.5069 48.5003,29.5069 49,37.5C 50.1882,36.4366 50.6882,35.1033 50.5,33.5C 51.6805,26.7764 53.1805,20.1097 55,13.5C 57.3392,8.74353 60.8392,7.57686 65.5,10C 67.4956,14.2712 67.9956,18.7712 67,23.5C 65.0566,33.0965 64.0566,42.7632 64,52.5C 67.0976,54.928 69.431,57.928 71,61.5C 72.8036,73.2256 68.3036,81.5589 57.5,86.5C 56.9209,90.0957 56.9209,93.7624 57.5,97.5C 56.8333,97.5 56.1667,97.5 55.5,97.5C 54.8629,94.544 54.3629,91.544 54,88.5C 52.7949,87.9288 51.6283,87.2621 50.5,86.5C 61.8851,84.2836 68.2185,77.4503 69.5,66C 67.2592,57.0922 61.5925,51.4255 52.5,49C 48.9031,47.7235 45.2364,47.3901 41.5,48C 38.9176,50.8921 39.0842,53.7254 42,56.5C 46.2515,59.0419 50.4181,61.7086 54.5,64.5C 44.0787,64.5621 37.7453,69.8954 35.5,80.5C 34.4979,71.8635 38.1645,65.8635 46.5,62.5C 39.6366,56.3552 32.3032,56.0219 24.5,61.5C 24.1667,61.1667 23.8333,60.8333 23.5,60.5C 24.7786,58.8539 26.4453,57.6872 28.5,57C 31.8185,56.1208 35.1518,55.2875 38.5,54.5C 37.0727,51.4672 37.406,48.6339 39.5,46C 46.5351,44.9534 53.2017,46.12 59.5,49.5C 61.6473,43.0159 63.1473,36.3492 64,29.5C 64.9987,24.1873 65.332,18.854 65,13.5C 61.5301,9.53099 58.8634,10.1977 57,15.5C 55.3215,23.2137 53.4881,30.8803 51.5,38.5C 52.376,39.2508 53.376,39.7508 54.5,40C 52.0982,40.8141 49.7649,40.6474 47.5,39.5C 46.6892,28.8798 46.1892,18.2131 46,7.5C 43.805,3.12789 40.805,2.46122 37,5.5C 36.5001,17.1619 36.3335,28.8286 36.5,40.5C 37.552,40.3505 38.552,40.5172 39.5,41C 35.0298,43.8489 32.1965,42.6822 31,37.5C 29.6778,27.9053 27.3445,18.572 24,9.5C 22.2672,7.3985 20.2672,7.06516 18,8.5C 17.8939,18.9821 19.2272,29.3154 22,39.5C 23.0674,40.1905 24.2341,40.6905 25.5,41C 24.3279,41.4186 23.3279,42.0853 22.5,43C 26.7875,49.0072 26.4541,54.6738 21.5,60C 18.6529,60.9439 16.1529,60.4439 14,58.5C 13.7925,68.4189 17.6258,76.4189 25.5,82.5C 24.675,83.3857 23.675,83.719 22.5,83.5C 22.5,88.1667 22.5,92.8333 22.5,97.5C 21.8333,97.5 21.1667,97.5 20.5,97.5C 20.6661,91.8236 20.4994,86.1569 20,80.5C 17.5134,78.1911 15.5134,75.5244 14,72.5C 12.4353,63.733 10.602,55.0664 8.5,46.5C 9.15098,40.1682 12.4843,37.8349 18.5,39.5C 18.8333,38.8333 19.1667,38.1667 19.5,37.5C 16.5254,27.7035 15.3587,17.7035 16,7.5C 19.6187,4.65716 22.952,4.9905 26,8.5C 29.4832,18.2829 32.1499,28.2829 34,38.5C 34.0404,26.4041 34.7071,14.4041 36,2.5C 37.3129,1.42717 38.8129,0.760499 40.5,0.5C 46.8339,2.43929 49.5006,6.77262 48.5,13.5 Z"/></g>
<g><path style="opacity:1" fill="#f5cda8" d="M 55.5,97.5 C 44.5,97.5 33.5,97.5 22.5,97.5C 22.5,92.8333 22.5,88.1667 22.5,83.5C 23.675,83.719 24.675,83.3857 25.5,82.5C 17.6258,76.4189 13.7925,68.4189 14,58.5C 16.1529,60.4439 18.6529,60.9439 21.5,60C 26.4541,54.6738 26.7875,49.0072 22.5,43C 23.3279,42.0853 24.3279,41.4186 25.5,41C 24.2341,40.6905 23.0674,40.1905 22,39.5C 19.2272,29.3154 17.8939,18.9821 18,8.5C 20.2672,7.06516 22.2672,7.3985 24,9.5C 27.3445,18.572 29.6778,27.9053 31,37.5C 32.1965,42.6822 35.0298,43.8489 39.5,41C 38.552,40.5172 37.552,40.3505 36.5,40.5C 36.3335,28.8286 36.5001,17.1619 37,5.5C 40.805,2.46122 43.805,3.12789 46,7.5C 46.1892,18.2131 46.6892,28.8798 47.5,39.5C 49.7649,40.6474 52.0982,40.8141 54.5,40C 53.376,39.7508 52.376,39.2508 51.5,38.5C 53.4881,30.8803 55.3215,23.2137 57,15.5C 58.8634,10.1977 61.5301,9.53099 65,13.5C 65.332,18.854 64.9987,24.1873 64,29.5C 63.1473,36.3492 61.6473,43.0159 59.5,49.5C 53.2017,46.12 46.5351,44.9534 39.5,46C 37.406,48.6339 37.0727,51.4672 38.5,54.5C 35.1518,55.2875 31.8185,56.1208 28.5,57C 26.4453,57.6872 24.7786,58.8539 23.5,60.5C 23.8333,60.8333 24.1667,61.1667 24.5,61.5C 32.3032,56.0219 39.6366,56.3552 46.5,62.5C 38.1645,65.8635 34.4979,71.8635 35.5,80.5C 37.7453,69.8954 44.0787,64.5621 54.5,64.5C 50.4181,61.7086 46.2515,59.0419 42,56.5C 39.0842,53.7254 38.9176,50.8921 41.5,48C 45.2364,47.3901 48.9031,47.7235 52.5,49C 61.5925,51.4255 67.2592,57.0922 69.5,66C 68.2185,77.4503 61.8851,84.2836 50.5,86.5C 51.6283,87.2621 52.7949,87.9288 54,88.5C 54.3629,91.544 54.8629,94.544 55.5,97.5 Z"/></g>
<g><path style="opacity:1" fill="#f0c9a5" d="M 12.5,41.5 C 19.2839,41.4695 22.9505,44.9695 23.5,52C 21.2285,60.0827 17.7285,60.5827 13,53.5C 12.0187,51.0402 11.1854,48.5402 10.5,46C 10.5186,44.167 11.1852,42.667 12.5,41.5 Z"/></g>
<g><path style="opacity:1" fill="#9e9e9e" d="M 48.5,13.5 C 49.1667,20.1667 49.8333,26.8333 50.5,33.5C 50.6882,35.1033 50.1882,36.4366 49,37.5C 48.5003,29.5069 48.3336,21.5069 48.5,13.5 Z"/></g>
</svg>
