<?xml version="1.0" encoding="UTF-8"?>
<!DOCTYPE svg PUBLIC "-//W3C//DTD SVG 1.1//EN" "http://www.w3.org/Graphics/SVG/1.1/DTD/svg11.dtd">
<svg xmlns="http://www.w3.org/2000/svg" version="1.1" width="108px" height="145px" style="shape-rendering:geometricPrecision; text-rendering:geometricPrecision; image-rendering:optimizeQuality; fill-rule:evenodd; clip-rule:evenodd" xmlns:xlink="http://www.w3.org/1999/xlink">
<g><path style="opacity:1" fill="#fdfdfd" d="M -0.5,-0.5 C 35.5,-0.5 71.5,-0.5 107.5,-0.5C 107.5,47.8333 107.5,96.1667 107.5,144.5C 90.5,144.5 73.5,144.5 56.5,144.5C 89.7014,140.108 104.535,121.108 101,87.5C 92.1471,62.1966 74.3138,51.53 47.5,55.5C 46.5269,53.0521 46.1936,50.3854 46.5,47.5C 58.0123,47.8281 69.3456,47.4948 80.5,46.5C 90.3249,45.6755 95.3249,40.3421 95.5,30.5C 98.6517,32.2535 101.985,33.0869 105.5,33C 102.516,31.7286 99.5156,30.562 96.5,29.5C 95.7659,28.2921 95.4326,26.9587 95.5,25.5C 108.833,25.1667 108.833,24.8333 95.5,24.5C 95.1667,23.8333 94.8333,23.1667 94.5,22.5C 97.8044,21.5058 101.138,20.5058 104.5,19.5C 104.333,19.1667 104.167,18.8333 104,18.5C 100.572,19.3958 97.0723,20.0624 93.5,20.5C 88.595,14.7452 82.2617,12.0785 74.5,12.5C 74.4536,8.18396 72.9536,4.51729 70,1.5C 66.506,4.61545 63.3393,8.11545 60.5,12C 54.1405,12.8306 47.8072,12.6639 41.5,11.5C 38.6454,8.47982 35.9787,5.31316 33.5,2C 32.552,1.51722 31.552,1.35055 30.5,1.5C 29.5155,4.8119 28.5155,8.14524 27.5,11.5C 20.8889,12.3071 15.2222,14.9737 10.5,19.5C 7.8127,19.3359 5.14603,19.5026 2.5,20C 4.86588,20.4396 7.19921,20.9396 9.5,21.5C 9.44312,22.609 9.10978,23.609 8.5,24.5C -0.833333,24.8333 -0.833333,25.1667 8.5,25.5C 8.5,26.8333 8.5,28.1667 8.5,29.5C 6.61812,30.7512 4.61812,31.9179 2.5,33C 4.57222,33.0363 6.57222,32.5363 8.5,31.5C 8.33338,50.5029 8.50005,69.5029 9,88.5C 11.5131,95.1749 16.3464,98.5082 23.5,98.5C 27.2728,98.1402 30.9395,97.3068 34.5,96C 41.7646,89.2395 50.0979,87.2395 59.5,90C 66.3798,96.7396 66.0465,103.073 58.5,109C 47.0316,111.107 36.3649,109.107 26.5,103C 16.9303,101.035 10.097,104.535 6,113.5C 3.74863,121.809 5.91529,128.643 12.5,134C 21.5831,139.414 31.2498,142.914 41.5,144.5C 27.5,144.5 13.5,144.5 -0.5,144.5C -0.5,96.1667 -0.5,47.8333 -0.5,-0.5 Z"/></g>
<g><path style="opacity:1" fill="#b5a5ab" d="M 93.5,20.5 C 87.9851,23.2575 88.3184,23.9242 94.5,22.5C 94.8333,23.1667 95.1667,23.8333 95.5,24.5C 92.9272,24.1485 90.5938,24.6485 88.5,26C 90.8473,26.3336 93.1806,26.167 95.5,25.5C 95.4326,26.9587 95.7659,28.2921 96.5,29.5C 94.2181,28.6103 91.8848,28.4436 89.5,29C 91.5183,29.5046 93.5183,30.0046 95.5,30.5C 95.3249,40.3421 90.3249,45.6755 80.5,46.5C 68.8333,46.5 57.1667,46.5 45.5,46.5C 45.1796,49.8984 45.513,53.2317 46.5,56.5C 47.1067,56.3764 47.44,56.0431 47.5,55.5C 74.3138,51.53 92.1471,62.1966 101,87.5C 104.535,121.108 89.7014,140.108 56.5,144.5C 51.5,144.5 46.5,144.5 41.5,144.5C 31.2498,142.914 21.5831,139.414 12.5,134C 5.91529,128.643 3.74863,121.809 6,113.5C 10.097,104.535 16.9303,101.035 26.5,103C 36.3649,109.107 47.0316,111.107 58.5,109C 66.0465,103.073 66.3798,96.7396 59.5,90C 50.0979,87.2395 41.7646,89.2395 34.5,96C 30.9395,97.3068 27.2728,98.1402 23.5,98.5C 16.3464,98.5082 11.5131,95.1749 9,88.5C 8.50005,69.5029 8.33338,50.5029 8.5,31.5C 11.4211,30.5188 14.4211,29.6854 17.5,29C 14.4929,28.6987 11.4929,28.8654 8.5,29.5C 8.5,28.1667 8.5,26.8333 8.5,25.5C 11.8663,25.7878 15.1996,25.9545 18.5,26C 15.3117,24.6842 11.9783,24.1842 8.5,24.5C 9.10978,23.609 9.44312,22.609 9.5,21.5C 12.464,22.4948 15.464,22.9948 18.5,23C 15.6907,21.9066 13.024,20.7399 10.5,19.5C 15.2222,14.9737 20.8889,12.3071 27.5,11.5C 28.5155,8.14524 29.5155,4.8119 30.5,1.5C 31.552,1.35055 32.552,1.51722 33.5,2C 35.9787,5.31316 38.6454,8.47982 41.5,11.5C 47.8072,12.6639 54.1405,12.8306 60.5,12C 63.3393,8.11545 66.506,4.61545 70,1.5C 72.9536,4.51729 74.4536,8.18396 74.5,12.5C 82.2617,12.0785 88.595,14.7452 93.5,20.5 Z"/></g>
<g><path style="opacity:1" fill="#ecb75c" d="M 10.5,19.5 C 13.024,20.7399 15.6907,21.9066 18.5,23C 15.464,22.9948 12.464,22.4948 9.5,21.5C 7.19921,20.9396 4.86588,20.4396 2.5,20C 5.14603,19.5026 7.8127,19.3359 10.5,19.5 Z"/></g>
<g><path style="opacity:1" fill="#f2bd5d" d="M 94.5,22.5 C 88.3184,23.9242 87.9851,23.2575 93.5,20.5C 97.0723,20.0624 100.572,19.3958 104,18.5C 104.167,18.8333 104.333,19.1667 104.5,19.5C 101.138,20.5058 97.8044,21.5058 94.5,22.5 Z"/></g>
<g><path style="opacity:1" fill="#333132" d="M 41.5,21.5 C 43.9118,21.6941 44.9118,23.0274 44.5,25.5C 43.1667,25.5 41.8333,25.5 40.5,25.5C 40.4326,24.0413 40.7659,22.7079 41.5,21.5 Z"/></g>
<g><path style="opacity:1" fill="#343233" d="M 59.5,21.5 C 62.5,21.1667 63.8333,22.5 63.5,25.5C 62.1667,25.5 60.8333,25.5 59.5,25.5C 59.5,24.1667 59.5,22.8333 59.5,21.5 Z"/></g>
<g><path style="opacity:1" fill="#edb34b" d="M 8.5,24.5 C 11.9783,24.1842 15.3117,24.6842 18.5,26C 15.1996,25.9545 11.8663,25.7878 8.5,25.5C -0.833333,25.1667 -0.833333,24.8333 8.5,24.5 Z"/></g>
<g><path style="opacity:1" fill="#f2bb56" d="M 95.5,24.5 C 108.833,24.8333 108.833,25.1667 95.5,25.5C 93.1806,26.167 90.8473,26.3336 88.5,26C 90.5938,24.6485 92.9272,24.1485 95.5,24.5 Z"/></g>
<g><path style="opacity:1" fill="#f8ae20" d="M 34.5,26.5 C 38.1612,26.3501 39.1612,27.8501 37.5,31C 33.7071,31.4866 32.7071,29.9866 34.5,26.5 Z"/></g>
<g><path style="opacity:1" fill="#494748" d="M 48.5,25.5 C 50.7925,25.2436 52.9592,25.5769 55,26.5C 53.6913,28.08 52.8579,30.08 52.5,32.5C 54.143,32.5198 55.4763,31.8532 56.5,30.5C 57.731,31.6507 57.731,32.8173 56.5,34C 53.9223,33.8789 51.4223,34.0456 49,34.5C 46.4744,33.8725 45.6411,32.5391 46.5,30.5C 47.5237,31.8532 48.857,32.5198 50.5,32.5C 50.756,30.0876 49.756,28.4209 47.5,27.5C 47.8627,26.8165 48.1961,26.1499 48.5,25.5 Z"/></g>
<g><path style="opacity:1" fill="#f5ae2b" d="M 65.5,26.5 C 66.8333,26.5 68.1667,26.5 69.5,26.5C 69.5,28.1667 69.5,29.8333 69.5,31.5C 65.065,32.0776 63.7317,30.4109 65.5,26.5 Z"/></g>
<g><path style="opacity:1" fill="#f6bf5c" d="M 96.5,29.5 C 99.5156,30.562 102.516,31.7286 105.5,33C 101.985,33.0869 98.6517,32.2535 95.5,30.5C 93.5183,30.0046 91.5183,29.5046 89.5,29C 91.8848,28.4436 94.2181,28.6103 96.5,29.5 Z"/></g>
<g><path style="opacity:1" fill="#f4bc55" d="M 8.5,31.5 C 6.57222,32.5363 4.57222,33.0363 2.5,33C 4.61812,31.9179 6.61812,30.7512 8.5,29.5C 11.4929,28.8654 14.4929,28.6987 17.5,29C 14.4211,29.6854 11.4211,30.5188 8.5,31.5 Z"/></g>
<g><path style="opacity:1" fill="#ded6d9" d="M 80.5,46.5 C 69.3456,47.4948 58.0123,47.8281 46.5,47.5C 46.1936,50.3854 46.5269,53.0521 47.5,55.5C 47.44,56.0431 47.1067,56.3764 46.5,56.5C 45.513,53.2317 45.1796,49.8984 45.5,46.5C 57.1667,46.5 68.8333,46.5 80.5,46.5 Z"/></g>
</svg>
