<?xml version="1.0" encoding="UTF-8"?>
<!DOCTYPE svg PUBLIC "-//W3C//DTD SVG 1.1//EN" "http://www.w3.org/Graphics/SVG/1.1/DTD/svg11.dtd">
<svg xmlns="http://www.w3.org/2000/svg" version="1.1" width="157px" height="125px" style="shape-rendering:geometricPrecision; text-rendering:geometricPrecision; image-rendering:optimizeQuality; fill-rule:evenodd; clip-rule:evenodd" xmlns:xlink="http://www.w3.org/1999/xlink">
<g><path style="opacity:1" fill="#f9f9f9" d="M -0.5,-0.5 C 28.1667,-0.5 56.8333,-0.5 85.5,-0.5C 84.5801,4.21891 86.2468,7.55224 90.5,9.5C 88.8333,10.1667 87.1667,10.8333 85.5,11.5C 82.3567,12.1335 79.8567,13.8002 78,16.5C 77.0625,9.94495 74.2292,8.94495 69.5,13.5C 66.8587,8.26657 62.5253,5.5999 56.5,5.5C 56.1524,9.08467 56.819,12.418 58.5,15.5C 56.1667,16.1667 53.8333,16.8333 51.5,17.5C 49.742,17.8769 48.0754,18.5435 46.5,19.5C 44.6001,17.3841 42.2668,16.0507 39.5,15.5C 38.1667,14.8333 36.8333,14.1667 35.5,13.5C 36.5085,8.28821 34.5085,6.12155 29.5,7C 28.6667,7.83333 27.8333,8.66667 27,9.5C 23.3996,5.45152 18.8996,3.78486 13.5,4.5C 12.5729,9.31433 14.2396,12.6477 18.5,14.5C 18.5,15.1667 18.1667,15.5 17.5,15.5C 5.31728,17.1966 0.150611,24.1966 2,36.5C 7.87027,62.7209 13.2036,89.0542 18,115.5C 19.2506,118.381 21.4173,120.214 24.5,121C 29.0309,121.907 33.3642,123.073 37.5,124.5C 24.8333,124.5 12.1667,124.5 -0.5,124.5C -0.5,82.8333 -0.5,41.1667 -0.5,-0.5 Z"/></g>
<g><path style="opacity:1" fill="#f5f5f5" d="M 92.5,-0.5 C 113.833,-0.5 135.167,-0.5 156.5,-0.5C 156.5,7.5 156.5,15.5 156.5,23.5C 153.834,16.6771 148.834,12.5104 141.5,11C 142.595,8.73112 142.261,6.56445 140.5,4.5C 137.433,2.94787 134.933,3.61454 133,6.5C 129.469,2.37681 124.969,0.710143 119.5,1.5C 119.075,5.98324 120.741,9.31657 124.5,11.5C 124.5,12.1667 124.167,12.5 123.5,12.5C 117.69,10.854 111.69,9.68733 105.5,9C 109.205,6.62447 109.205,3.9578 105.5,1C 104.251,0.259877 103.251,0.426544 102.5,1.5C 101.167,2.16667 100.167,3.16667 99.5,4.5C 97.4,2.38353 95.0667,0.716859 92.5,-0.5 Z"/></g>
<g><path style="opacity:1" fill="#5ab244" d="M 97.5,8.5 C 96.4324,9.43448 95.099,9.76781 93.5,9.5C 89.5617,8.23503 87.5617,5.56836 87.5,1.5C 93.406,0.435436 96.7394,2.76877 97.5,8.5 Z"/></g>
<g><path style="opacity:1" fill="#1a2019" d="M 85.5,-0.5 C 87.8333,-0.5 90.1667,-0.5 92.5,-0.5C 95.0667,0.716859 97.4,2.38353 99.5,4.5C 99.0113,5.99522 98.3446,7.32855 97.5,8.5C 96.7394,2.76877 93.406,0.435436 87.5,1.5C 87.5617,5.56836 89.5617,8.23503 93.5,9.5C 93.5,9.83333 93.5,10.1667 93.5,10.5C 92.391,10.4431 91.391,10.1098 90.5,9.5C 86.2468,7.55224 84.5801,4.21891 85.5,-0.5 Z"/></g>
<g><path style="opacity:1" fill="#482910" d="M 103.5,2.5 C 105.293,2.88364 106.293,4.05031 106.5,6C 106.164,7.02992 105.497,7.52992 104.5,7.5C 100.865,9.76444 99.0317,13.0978 99,17.5C 98.3901,13.7636 98.7235,10.0969 100,6.5C 100.66,4.67634 101.827,3.34301 103.5,2.5 Z"/></g>
<g><path style="opacity:1" fill="#ce2125" d="M 105.5,10.5 C 109.634,9.94295 113.301,10.9429 116.5,13.5C 113.734,15.2593 111.734,17.5927 110.5,20.5C 109.778,20.9175 109.278,21.5842 109,22.5C 108.333,27.5 108.333,32.5 109,37.5C 110.741,40.3093 111.908,43.3093 112.5,46.5C 103.186,47.4839 93.8524,47.6505 84.5,47C 78.1476,39.6116 75.6476,31.1116 77,21.5C 81.2012,12.8177 87.7012,10.4844 96.5,14.5C 96.5,16.1667 96.5,17.8333 96.5,19.5C 97.8333,19.5 99.1667,19.5 100.5,19.5C 100.372,15.4153 102.039,12.4153 105.5,10.5 Z"/></g>
<g><path style="opacity:1" fill="#161812" d="M 102.5,1.5 C 103.251,0.426544 104.251,0.259877 105.5,1C 109.205,3.9578 109.205,6.62447 105.5,9C 111.69,9.68733 117.69,10.854 123.5,12.5C 125.396,13.4805 127.396,14.4805 129.5,15.5C 130.386,14.675 130.719,13.675 130.5,12.5C 128.379,12.6747 126.379,12.3414 124.5,11.5C 120.741,9.31657 119.075,5.98324 119.5,1.5C 124.969,0.710143 129.469,2.37681 133,6.5C 134.933,3.61454 137.433,2.94787 140.5,4.5C 142.261,6.56445 142.595,8.73112 141.5,11C 148.834,12.5104 153.834,16.6771 156.5,23.5C 156.5,27.1667 156.5,30.8333 156.5,34.5C 155.167,40.1667 153.833,45.8333 152.5,51.5C 152.672,50.5084 152.338,49.8417 151.5,49.5C 152.205,46.7557 152.205,44.089 151.5,41.5C 146.992,43.448 142.325,44.7813 137.5,45.5C 137.158,44.6618 136.492,44.3284 135.5,44.5C 140.353,42.942 145.353,41.442 150.5,40C 151.931,39.5348 153.097,38.7014 154,37.5C 154.667,32.5 154.667,27.5 154,22.5C 149.726,13.4063 143.392,11.4063 135,16.5C 134.667,18.1667 134.333,19.8333 134,21.5C 132.667,22.8333 131.333,22.8333 130,21.5C 128.337,15.0806 124.171,12.9139 117.5,15C 114.254,16.7424 111.921,19.2424 110.5,22.5C 110.5,21.8333 110.5,21.1667 110.5,20.5C 111.734,17.5927 113.734,15.2593 116.5,13.5C 113.301,10.9429 109.634,9.94295 105.5,10.5C 104.761,10.631 104.094,10.4643 103.5,10C 104.252,9.32924 104.586,8.4959 104.5,7.5C 105.497,7.52992 106.164,7.02992 106.5,6C 106.293,4.05031 105.293,2.88364 103.5,2.5C 103.5,1.83333 103.167,1.5 102.5,1.5 Z"/></g>
<g><path style="opacity:1" fill="#a2a3a2" d="M 124.5,11.5 C 126.379,12.3414 128.379,12.6747 130.5,12.5C 130.719,13.675 130.386,14.675 129.5,15.5C 127.396,14.4805 125.396,13.4805 123.5,12.5C 124.167,12.5 124.5,12.1667 124.5,11.5 Z"/></g>
<g><path style="opacity:1" fill="#492a10" d="M 137.5,4.5 C 138.965,5.40567 139.965,6.73901 140.5,8.5C 135.472,10.872 132.638,14.872 132,20.5C 131.38,14.3079 133.214,8.97459 137.5,4.5 Z"/></g>
<g><path style="opacity:1" fill="#5ab344" d="M 125.5,3.5 C 129.899,4.2776 131.899,6.94427 131.5,11.5C 126.537,12.0255 123.204,10.0255 121.5,5.5C 122.183,3.82351 123.517,3.15684 125.5,3.5 Z"/></g>
<g><path style="opacity:1" fill="#2a541f" d="M 125.5,3.5 C 123.517,3.15684 122.183,3.82351 121.5,5.5C 120.596,4.79105 120.263,3.79105 120.5,2.5C 122.415,2.21552 124.081,2.54885 125.5,3.5 Z"/></g>
<g><path style="opacity:1" fill="#a7a6a6" d="M 18.5,14.5 C 20.3792,15.3414 22.3792,15.6747 24.5,15.5C 24.719,16.675 24.3857,17.675 23.5,18.5C 21.396,17.4805 19.396,16.4805 17.5,15.5C 18.1667,15.5 18.5,15.1667 18.5,14.5 Z"/></g>
<g><path style="opacity:1" fill="#5db846" d="M 135.5,44.5 C 128.523,45.4568 121.523,45.6234 114.5,45C 109.796,38.048 108.463,30.548 110.5,22.5C 111.921,19.2424 114.254,16.7424 117.5,15C 124.171,12.9139 128.337,15.0806 130,21.5C 131.333,22.8333 132.667,22.8333 134,21.5C 134.333,19.8333 134.667,18.1667 135,16.5C 143.392,11.4063 149.726,13.4063 154,22.5C 154.667,27.5 154.667,32.5 154,37.5C 153.097,38.7014 151.931,39.5348 150.5,40C 145.353,41.442 140.353,42.942 135.5,44.5 Z"/></g>
<g><path style="opacity:1" fill="#99d38c" d="M 147.5,18.5 C 148.822,18.33 149.989,18.6634 151,19.5C 153.736,24.3759 154.07,29.3759 152,34.5C 150.989,35.3366 149.822,35.67 148.5,35.5C 150.003,29.7046 149.67,24.038 147.5,18.5 Z"/></g>
<g><path style="opacity:1" fill="#f8f8f8" d="M 156.5,34.5 C 156.5,64.5 156.5,94.5 156.5,124.5C 144.167,124.5 131.833,124.5 119.5,124.5C 124.711,123.027 130.044,121.527 135.5,120C 137.286,119.215 138.786,118.049 140,116.5C 144.492,94.8913 148.658,73.2246 152.5,51.5C 153.833,45.8333 155.167,40.1667 156.5,34.5 Z"/></g>
<g><path style="opacity:1" fill="#4b2a10" d="M 137.5,45.5 C 142.325,44.7813 146.992,43.448 151.5,41.5C 152.205,44.089 152.205,46.7557 151.5,49.5C 151.586,50.4959 151.252,51.3292 150.5,52C 136.143,56.0991 121.476,58.4324 106.5,59C 87.5,59.6667 68.5,59.6667 49.5,59C 37.0584,58.0797 24.7251,56.4131 12.5,54C 10.481,53.5503 8.64769,52.717 7,51.5C 6.60759,48.8121 6.10759,46.1454 5.5,43.5C 5.83333,42.8333 6.16667,42.1667 6.5,41.5C 9.65608,43.1632 12.9894,44.3299 16.5,45C 56.8078,50.7523 97.1411,50.919 137.5,45.5 Z"/></g>
<g><path style="opacity:1" fill="#120c06" d="M 102.5,1.5 C 103.167,1.5 103.5,1.83333 103.5,2.5C 101.827,3.34301 100.66,4.67634 100,6.5C 98.7235,10.0969 98.3901,13.7636 99,17.5C 99.0317,13.0978 100.865,9.76444 104.5,7.5C 104.586,8.4959 104.252,9.32924 103.5,10C 104.094,10.4643 104.761,10.631 105.5,10.5C 102.039,12.4153 100.372,15.4153 100.5,19.5C 99.1667,19.5 97.8333,19.5 96.5,19.5C 96.5,17.8333 96.5,16.1667 96.5,14.5C 87.7012,10.4844 81.2012,12.8177 77,21.5C 75.6476,31.1116 78.1476,39.6116 84.5,47C 93.8524,47.6505 103.186,47.4839 112.5,46.5C 111.908,43.3093 110.741,40.3093 109,37.5C 108.333,32.5 108.333,27.5 109,22.5C 109.278,21.5842 109.778,20.9175 110.5,20.5C 110.5,21.1667 110.5,21.8333 110.5,22.5C 108.463,30.548 109.796,38.048 114.5,45C 121.523,45.6234 128.523,45.4568 135.5,44.5C 136.492,44.3284 137.158,44.6618 137.5,45.5C 97.1411,50.919 56.8078,50.7523 16.5,45C 12.9894,44.3299 9.65608,43.1632 6.5,41.5C 6.16667,42.1667 5.83333,42.8333 5.5,43.5C 6.10759,46.1454 6.60759,48.8121 7,51.5C 8.64769,52.717 10.481,53.5503 12.5,54C 24.7251,56.4131 37.0584,58.0797 49.5,59C 68.5,59.6667 87.5,59.6667 106.5,59C 121.476,58.4324 136.143,56.0991 150.5,52C 151.252,51.3292 151.586,50.4959 151.5,49.5C 152.338,49.8417 152.672,50.5084 152.5,51.5C 148.658,73.2246 144.492,94.8913 140,116.5C 138.786,118.049 137.286,119.215 135.5,120C 130.044,121.527 124.711,123.027 119.5,124.5C 113.167,124.5 106.833,124.5 100.5,124.5C 110.379,123.178 120.379,121.678 130.5,120C 133.657,119.258 136.323,117.758 138.5,115.5C 137.833,115.167 137.167,114.833 136.5,114.5C 98.1537,121.124 59.8204,121.124 21.5,114.5C 19.4311,114.824 19.0977,115.658 20.5,117C 22.8333,118 25.1667,119 27.5,120C 36.9399,121.751 46.2732,123.251 55.5,124.5C 49.5,124.5 43.5,124.5 37.5,124.5C 33.3642,123.073 29.0309,121.907 24.5,121C 21.4173,120.214 19.2506,118.381 18,115.5C 13.2036,89.0542 7.87027,62.7209 2,36.5C 0.150611,24.1966 5.31728,17.1966 17.5,15.5C 19.396,16.4805 21.396,17.4805 23.5,18.5C 24.3857,17.675 24.719,16.675 24.5,15.5C 22.3792,15.6747 20.3792,15.3414 18.5,14.5C 14.2396,12.6477 12.5729,9.31433 13.5,4.5C 18.8996,3.78486 23.3996,5.45152 27,9.5C 27.8333,8.66667 28.6667,7.83333 29.5,7C 34.5085,6.12155 36.5085,8.28821 35.5,13.5C 34.0783,13.7086 32.745,14.2086 31.5,15C 34.146,15.4974 36.8127,15.6641 39.5,15.5C 42.2668,16.0507 44.6001,17.3841 46.5,19.5C 48.0754,18.5435 49.742,17.8769 51.5,17.5C 56.2043,16.9615 60.5377,17.9615 64.5,20.5C 64.8333,20.1667 65.1667,19.8333 65.5,19.5C 62.9855,18.4117 60.6522,17.0783 58.5,15.5C 56.819,12.418 56.1524,9.08467 56.5,5.5C 62.5253,5.5999 66.8587,8.26657 69.5,13.5C 74.2292,8.94495 77.0625,9.94495 78,16.5C 79.8567,13.8002 82.3567,12.1335 85.5,11.5C 88.8835,11.3396 92.2169,11.673 95.5,12.5C 96.1667,12.1667 96.8333,11.8333 97.5,11.5C 96.3112,10.5713 94.9778,10.238 93.5,10.5C 93.5,10.1667 93.5,9.83333 93.5,9.5C 95.099,9.76781 96.4324,9.43448 97.5,8.5C 98.3446,7.32855 99.0113,5.99522 99.5,4.5C 100.167,3.16667 101.167,2.16667 102.5,1.5 Z"/></g>
<g><path style="opacity:1" fill="#4b2b10" d="M 12.5,77.5 C 34.3962,81.9757 56.5629,83.9757 79,83.5C 101.071,83.7642 122.905,81.7642 144.5,77.5C 145.221,81.0346 144.888,84.5346 143.5,88C 100.517,95.0848 57.5171,95.2515 14.5,88.5C 13.6745,84.8641 13.0078,81.1974 12.5,77.5 Z"/></g>
<g><path style="opacity:1" fill="#4c2b10" d="M 51.5,61.5 C 60.1667,61.5 68.8333,61.5 77.5,61.5C 77.5,68.1667 77.5,74.8333 77.5,81.5C 69.4931,81.6664 61.4931,81.4997 53.5,81C 52.7753,74.5336 52.1086,68.0336 51.5,61.5 Z"/></g>
<g><path style="opacity:1" fill="#4b2b10" d="M 129.5,58.5 C 130.514,65.3418 129.847,72.1751 127.5,79C 120.504,79.8337 113.504,80.1671 106.5,80C 107.478,73.5898 107.811,67.0898 107.5,60.5C 115.02,60.2826 122.354,59.6159 129.5,58.5 Z"/></g>
<g><path style="opacity:1" fill="#663816" d="M 97.5,60.5 C 100.5,60.5 103.5,60.5 106.5,60.5C 105.395,67.4491 104.728,74.4491 104.5,81.5C 96.1667,81.5 87.8333,81.5 79.5,81.5C 79.5,74.8333 79.5,68.1667 79.5,61.5C 85.69,61.8229 91.69,61.4896 97.5,60.5 Z"/></g>
<g><path style="opacity:1" fill="#673916" d="M 26.5,58.5 C 34.1249,59.4815 41.7916,60.3148 49.5,61C 50.4777,67.4102 50.811,73.9102 50.5,80.5C 43.7943,80.5523 37.1276,80.0523 30.5,79C 28.5942,72.3037 27.2609,65.4703 26.5,58.5 Z"/></g>
<g><path style="opacity:1" fill="#4b2a10" d="M 7.5,54.5 C 13,55.8879 18.5,57.2213 24,58.5C 25.9808,65.0058 27.1474,71.6724 27.5,78.5C 22.3917,78.0375 17.3917,77.0375 12.5,75.5C 10.7039,68.5171 9.03725,61.5171 7.5,54.5 Z"/></g>
<g><path style="opacity:1" fill="#673916" d="M 148.5,54.5 C 149.376,54.3691 150.043,54.7025 150.5,55.5C 148.532,62.0398 147.198,68.7065 146.5,75.5C 141.165,76.5005 135.832,77.5005 130.5,78.5C 130.942,71.7421 131.942,65.0754 133.5,58.5C 138.71,57.4769 143.71,56.1436 148.5,54.5 Z"/></g>
<g><path style="opacity:1" fill="#4f0c0e" d="M 40.5,44.5 C 41.0431,44.56 41.3764,44.8933 41.5,45.5C 39.0268,46.7969 36.6934,46.7969 34.5,45.5C 36.7354,45.7947 38.7354,45.4614 40.5,44.5 Z"/></g>
<g><path style="opacity:1" fill="#5cb845" d="M 50.5,18.5 C 55.6774,17.7031 60.1774,19.0364 64,22.5C 64.3534,23.6716 64.1868,24.8382 63.5,26C 63.6667,27.5 64.5,28.3333 66,28.5C 67.8597,26.625 69.3597,24.4583 70.5,22C 72.2588,21.2025 73.9255,21.3691 75.5,22.5C 74.6573,31.4832 76.9906,39.6499 82.5,47C 69.1524,47.6661 55.8191,47.4995 42.5,46.5C 41.5915,40.5219 41.4248,34.5219 42,28.5C 43.9779,24.3619 46.8112,21.0286 50.5,18.5 Z"/></g>
<g><path style="opacity:1" fill="#b7b8b7" d="M 58.5,15.5 C 60.6522,17.0783 62.9855,18.4117 65.5,19.5C 65.1667,19.8333 64.8333,20.1667 64.5,20.5C 60.5377,17.9615 56.2043,16.9615 51.5,17.5C 53.8333,16.8333 56.1667,16.1667 58.5,15.5 Z"/></g>
<g><path style="opacity:1" fill="#d02326" d="M 40.5,44.5 C 38.7354,45.4614 36.7354,45.7947 34.5,45.5C 23.6192,45.2391 13.4525,42.5724 4,37.5C 1.6562,29.0364 4.1562,22.5364 11.5,18C 18.1707,15.9139 22.3373,18.0806 24,24.5C 24.5613,25.0219 25.228,25.3552 26,25.5C 27.6182,22.5279 29.4515,19.6946 31.5,17C 35.2613,16.2617 38.9279,16.5951 42.5,18C 43.5742,18.7387 44.2409,19.7387 44.5,21C 39.5958,28.1816 38.2624,36.0149 40.5,44.5 Z"/></g>
<g><path style="opacity:1" fill="#492a10" d="M 72.5,12.5 C 73.5,12.5 74.5,12.5 75.5,12.5C 75.4208,13.9305 75.7542,15.2638 76.5,16.5C 70.903,17.5962 67.403,20.9296 66,26.5C 66.785,21.2593 68.9517,16.5927 72.5,12.5 Z"/></g>
<g><path style="opacity:1" fill="#5c5c5c" d="M 35.5,13.5 C 36.8333,14.1667 38.1667,14.8333 39.5,15.5C 36.8127,15.6641 34.146,15.4974 31.5,15C 32.745,14.2086 34.0783,13.7086 35.5,13.5 Z"/></g>
<g><path style="opacity:1" fill="#45270f" d="M 30.5,7.5 C 32.7012,7.85839 34.0345,9.19172 34.5,11.5C 29.4718,13.872 26.6385,17.872 26,23.5C 25.4206,17.5537 26.9206,12.2204 30.5,7.5 Z"/></g>
<g><path style="opacity:1" fill="#a3a3a2" d="M 90.5,9.5 C 91.391,10.1098 92.391,10.4431 93.5,10.5C 94.9778,10.238 96.3112,10.5713 97.5,11.5C 96.8333,11.8333 96.1667,12.1667 95.5,12.5C 92.2169,11.673 88.8835,11.3396 85.5,11.5C 87.1667,10.8333 88.8333,10.1667 90.5,9.5 Z"/></g>
<g><path style="opacity:1" fill="#59b243" d="M 58.5,7.5 C 64.3471,8.34399 67.3471,11.6773 67.5,17.5C 60.9678,17.3027 57.9678,13.9694 58.5,7.5 Z"/></g>
<g><path style="opacity:1" fill="#5bb645" d="M 19.5,6.5 C 23.4119,7.74384 25.4119,10.4105 25.5,14.5C 20.5375,15.0255 17.2041,13.0255 15.5,8.5C 16.1834,6.82351 17.5168,6.15684 19.5,6.5 Z"/></g>
<g><path style="opacity:1" fill="#2d5a21" d="M 19.5,6.5 C 17.5168,6.15684 16.1834,6.82351 15.5,8.5C 14.596,7.79105 14.2627,6.79105 14.5,5.5C 16.4147,5.21552 18.0813,5.54885 19.5,6.5 Z"/></g>
<g><path style="opacity:1" fill="#673916" d="M 137.5,90.5 C 139.527,90.3379 141.527,90.5045 143.5,91C 141.465,98.0086 140.132,105.175 139.5,112.5C 134.5,113.167 129.5,113.833 124.5,114.5C 125.5,107.167 126.5,99.8333 127.5,92.5C 131.04,92.2474 134.373,91.5808 137.5,90.5 Z"/></g>
<g><path style="opacity:1" fill="#683916" d="M 32.5,93.5 C 39.1477,94.1395 45.8144,94.4728 52.5,94.5C 53.0375,101.822 53.3709,109.155 53.5,116.5C 47.477,116.498 41.477,116.165 35.5,115.5C 34.7632,108.132 33.7632,100.799 32.5,93.5 Z"/></g>
<g><path style="opacity:1" fill="#683916" d="M 89.5,94.5 C 94.1667,94.5 98.8333,94.5 103.5,94.5C 103.221,101.844 102.721,109.177 102,116.5C 94.9213,117.48 87.7546,117.813 80.5,117.5C 80.5,110.167 80.5,102.833 80.5,95.5C 83.7131,95.81 86.7131,95.4767 89.5,94.5 Z"/></g>
<g><path style="opacity:1" fill="#4b2b10" d="M 116.5,93.5 C 119.5,93.5 122.5,93.5 125.5,93.5C 124.208,100.791 123.208,108.124 122.5,115.5C 116.5,115.833 110.5,116.167 104.5,116.5C 104.418,109.142 104.752,101.809 105.5,94.5C 109.371,94.815 113.038,94.4816 116.5,93.5 Z"/></g>
<g><path style="opacity:1" fill="#4c2b10" d="M 54.5,95.5 C 62.1667,95.5 69.8333,95.5 77.5,95.5C 77.5,102.833 77.5,110.167 77.5,117.5C 70.1667,117.5 62.8333,117.5 55.5,117.5C 55.1667,110.167 54.8333,102.833 54.5,95.5 Z"/></g>
<g><path style="opacity:1" fill="#4a2a10" d="M 15.5,90.5 C 20.4516,91.4918 25.4516,92.1584 30.5,92.5C 31.1275,99.8921 32.1275,107.225 33.5,114.5C 28.4516,114.158 23.4516,113.492 18.5,112.5C 17.5021,105.172 16.5021,97.8391 15.5,90.5 Z"/></g>
<g><path style="opacity:1" fill="#4b2a10" d="M 100.5,124.5 C 85.5,124.5 70.5,124.5 55.5,124.5C 46.2732,123.251 36.9399,121.751 27.5,120C 25.1667,119 22.8333,118 20.5,117C 19.0977,115.658 19.4311,114.824 21.5,114.5C 59.8204,121.124 98.1537,121.124 136.5,114.5C 137.167,114.833 137.833,115.167 138.5,115.5C 136.323,117.758 133.657,119.258 130.5,120C 120.379,121.678 110.379,123.178 100.5,124.5 Z"/></g>
</svg>
