<?xml version="1.0" encoding="UTF-8"?>
<!DOCTYPE svg PUBLIC "-//W3C//DTD SVG 1.1//EN" "http://www.w3.org/Graphics/SVG/1.1/DTD/svg11.dtd">
<svg xmlns="http://www.w3.org/2000/svg" version="1.1" width="116px" height="116px" style="shape-rendering:geometricPrecision; text-rendering:geometricPrecision; image-rendering:optimizeQuality; fill-rule:evenodd; clip-rule:evenodd" xmlns:xlink="http://www.w3.org/1999/xlink">
<g><path style="opacity:1" fill="#fdfdfd" d="M -0.5,-0.5 C 17.1667,-0.5 34.8333,-0.5 52.5,-0.5C 48.1626,1.84726 45.8293,5.51393 45.5,10.5C 44.8333,20.5 44.1667,30.5 43.5,40.5C 41.606,32.8667 39.7726,25.2001 38,17.5C 34.877,8.70651 29.877,7.37318 23,13.5C 22.0153,15.3659 21.5153,17.3659 21.5,19.5C 23.2535,32.7677 25.5868,45.9344 28.5,59C 24.6659,63.8533 21.1659,69.0199 18,74.5C 16.4039,88.6434 22.0706,98.6434 35,104.5C 35.5787,108.203 35.412,111.869 34.5,115.5C 22.8333,115.5 11.1667,115.5 -0.5,115.5C -0.5,76.8333 -0.5,38.1667 -0.5,-0.5 Z"/></g>
<g><path style="opacity:1" fill="#fcfcfc" d="M 57.5,-0.5 C 76.8333,-0.5 96.1667,-0.5 115.5,-0.5C 115.5,38.1667 115.5,76.8333 115.5,115.5C 103.5,115.5 91.5,115.5 79.5,115.5C 79.3338,109.158 79.5005,102.825 80,96.5C 83.4006,93.3647 86.0673,89.698 88,85.5C 89.8987,76.9373 91.232,68.2706 92,59.5C 96.5885,49.492 100.755,39.3253 104.5,29C 103.267,23.0499 99.9333,21.3833 94.5,24C 89.2193,29.3889 85.0526,35.5555 82,42.5C 84.1312,31.6267 85.4645,20.6267 86,9.5C 83.9473,5.70842 80.7806,4.54176 76.5,6C 74.094,7.62198 72.2606,9.78865 71,12.5C 67.9654,23.7348 65.2987,35.0681 63,46.5C 62.6305,33.4889 62.6305,20.4889 63,7.5C 62.3751,3.89071 60.5418,1.22405 57.5,-0.5 Z"/></g>
<g><path style="opacity:1" fill="#171513" d="M 52.5,-0.5 C 54.1667,-0.5 55.8333,-0.5 57.5,-0.5C 60.5418,1.22405 62.3751,3.89071 63,7.5C 62.6305,20.4889 62.6305,33.4889 63,46.5C 65.2987,35.0681 67.9654,23.7348 71,12.5C 72.2606,9.78865 74.094,7.62198 76.5,6C 80.7806,4.54176 83.9473,5.70842 86,9.5C 85.4645,20.6267 84.1312,31.6267 82,42.5C 85.0526,35.5555 89.2193,29.3889 94.5,24C 99.9333,21.3833 103.267,23.0499 104.5,29C 100.755,39.3253 96.5885,49.492 92,59.5C 91.232,68.2706 89.8987,76.9373 88,85.5C 86.0673,89.698 83.4006,93.3647 80,96.5C 79.5005,102.825 79.3338,109.158 79.5,115.5C 78.5,115.5 77.5,115.5 76.5,115.5C 76.5,110.5 76.5,105.5 76.5,100.5C 75.325,100.719 74.325,100.386 73.5,99.5C 77.1863,95.6481 80.6863,91.6481 84,87.5C 87.3043,78.4623 88.6377,69.129 88,59.5C 86.9783,58.646 86.1449,57.646 85.5,56.5C 87.1173,56.3306 88.784,55.9972 90.5,55.5C 94.6583,46.8553 98.3249,38.022 101.5,29C 100.895,26.1985 99.2287,25.1985 96.5,26C 90.2619,32.9782 85.4286,40.8115 82,49.5C 78.9503,51.8879 76.117,51.5546 73.5,48.5C 74.3914,47.4104 75.3914,47.4104 76.5,48.5C 80.7889,35.7725 82.7889,22.7725 82.5,9.5C 80.5787,8.35901 78.5787,8.19234 76.5,9C 74.5987,11.9696 73.0987,15.1363 72,18.5C 70.3693,27.9165 68.3693,37.2498 66,46.5C 65.5348,47.9308 64.7014,49.0975 63.5,50C 61.1902,50.4966 58.8568,50.6633 56.5,50.5C 56.5,49.5 56.5,48.5 56.5,47.5C 57.5,47.5 58.5,47.5 59.5,47.5C 59.8267,34.1596 59.9933,20.8263 60,7.5C 59.2521,3.08604 56.7521,1.58604 52.5,3C 50.5125,4.31892 49.3459,6.15226 49,8.5C 48.6667,20.5 48.3333,32.5 48,44.5C 47.5,45.5 47,46.5 46.5,47.5C 43.5541,48.6548 40.5541,48.8214 37.5,48C 38.5634,46.8118 39.8967,46.3118 41.5,46.5C 39.7884,35.2006 36.955,24.2006 33,13.5C 27.8651,11.6211 25.0317,13.4544 24.5,19C 26.2546,32.6056 28.5879,46.1056 31.5,59.5C 38.6395,55.298 46.3062,53.4647 54.5,54C 57.9625,56.1945 59.2958,59.3612 58.5,63.5C 64.2692,64.4237 69.9359,65.757 75.5,67.5C 75.5,68.5 75.5,69.5 75.5,70.5C 70.1789,69.1762 64.8456,67.8429 59.5,66.5C 55.7531,69.5536 51.7531,72.3869 47.5,75C 58.2092,78.945 62.8759,86.445 61.5,97.5C 60.288,92.9349 58.4547,88.6016 56,84.5C 51.9836,80.7503 47.4836,77.9169 42.5,76C 46.2726,72.9066 50.1059,69.7399 54,66.5C 57.4306,58.5997 54.9306,55.433 46.5,57C 37.2232,59.053 29.3899,63.553 23,70.5C 18.1313,81.9 20.6313,91.4 30.5,99C 33.4125,100.373 36.2458,101.873 39,103.5C 39.1563,107.555 38.6563,111.555 37.5,115.5C 36.5,115.5 35.5,115.5 34.5,115.5C 35.412,111.869 35.5787,108.203 35,104.5C 22.0706,98.6434 16.4039,88.6434 18,74.5C 21.1659,69.0199 24.6659,63.8533 28.5,59C 25.5868,45.9344 23.2535,32.7677 21.5,19.5C 21.5153,17.3659 22.0153,15.3659 23,13.5C 29.877,7.37318 34.877,8.70651 38,17.5C 39.7726,25.2001 41.606,32.8667 43.5,40.5C 43.238,41.9778 43.5713,43.3112 44.5,44.5C 45.4988,33.1862 45.8322,21.8529 45.5,10.5C 45.8293,5.51393 48.1626,1.84726 52.5,-0.5 Z"/></g>
<g><path style="opacity:1" fill="#f8cfa9" d="M 76.5,115.5 C 63.5,115.5 50.5,115.5 37.5,115.5C 38.6563,111.555 39.1563,107.555 39,103.5C 36.2458,101.873 33.4125,100.373 30.5,99C 20.6313,91.4 18.1313,81.9 23,70.5C 29.3899,63.553 37.2232,59.053 46.5,57C 54.9306,55.433 57.4306,58.5997 54,66.5C 50.1059,69.7399 46.2726,72.9066 42.5,76C 47.4836,77.9169 51.9836,80.7503 56,84.5C 58.4547,88.6016 60.288,92.9349 61.5,97.5C 62.8759,86.445 58.2092,78.945 47.5,75C 51.7531,72.3869 55.7531,69.5536 59.5,66.5C 64.8456,67.8429 70.1789,69.1762 75.5,70.5C 75.5,69.5 75.5,68.5 75.5,67.5C 69.9359,65.757 64.2692,64.4237 58.5,63.5C 59.2958,59.3612 57.9625,56.1945 54.5,54C 46.3062,53.4647 38.6395,55.298 31.5,59.5C 28.5879,46.1056 26.2546,32.6056 24.5,19C 25.0317,13.4544 27.8651,11.6211 33,13.5C 36.955,24.2006 39.7884,35.2006 41.5,46.5C 39.8967,46.3118 38.5634,46.8118 37.5,48C 40.5541,48.8214 43.5541,48.6548 46.5,47.5C 47,46.5 47.5,45.5 48,44.5C 48.3333,32.5 48.6667,20.5 49,8.5C 49.3459,6.15226 50.5125,4.31892 52.5,3C 56.7521,1.58604 59.2521,3.08604 60,7.5C 59.9933,20.8263 59.8267,34.1596 59.5,47.5C 58.5,47.5 57.5,47.5 56.5,47.5C 56.5,48.5 56.5,49.5 56.5,50.5C 58.8568,50.6633 61.1902,50.4966 63.5,50C 64.7014,49.0975 65.5348,47.9308 66,46.5C 68.3693,37.2498 70.3693,27.9165 72,18.5C 73.0987,15.1363 74.5987,11.9696 76.5,9C 78.5787,8.19234 80.5787,8.35901 82.5,9.5C 82.7889,22.7725 80.7889,35.7725 76.5,48.5C 75.3914,47.4104 74.3914,47.4104 73.5,48.5C 76.117,51.5546 78.9503,51.8879 82,49.5C 85.4286,40.8115 90.2619,32.9782 96.5,26C 99.2287,25.1985 100.895,26.1985 101.5,29C 98.3249,38.022 94.6583,46.8553 90.5,55.5C 88.784,55.9972 87.1173,56.3306 85.5,56.5C 86.1449,57.646 86.9783,58.646 88,59.5C 88.6377,69.129 87.3043,78.4623 84,87.5C 80.6863,91.6481 77.1863,95.6481 73.5,99.5C 74.325,100.386 75.325,100.719 76.5,100.5C 76.5,105.5 76.5,110.5 76.5,115.5 Z"/></g>
<g><path style="opacity:1" fill="#989898" d="M 45.5,10.5 C 45.8322,21.8529 45.4988,33.1862 44.5,44.5C 43.5713,43.3112 43.238,41.9778 43.5,40.5C 44.1667,30.5 44.8333,20.5 45.5,10.5 Z"/></g>
</svg>
