<?xml version="1.0" encoding="UTF-8"?>
<!DOCTYPE svg PUBLIC "-//W3C//DTD SVG 1.1//EN" "http://www.w3.org/Graphics/SVG/1.1/DTD/svg11.dtd">
<svg xmlns="http://www.w3.org/2000/svg" version="1.1" width="156px" height="138px" style="shape-rendering:geometricPrecision; text-rendering:geometricPrecision; image-rendering:optimizeQuality; fill-rule:evenodd; clip-rule:evenodd" xmlns:xlink="http://www.w3.org/1999/xlink">
<g><path style="opacity:1" fill="#fefdfd" d="M -0.5,-0.5 C 37.5,-0.5 75.5,-0.5 113.5,-0.5C 100.983,0.23742 88.3159,1.07075 75.5,2C 74.944,2.38258 74.6107,2.88258 74.5,3.5C 73.2794,4.02832 72.1127,4.69499 71,5.5C 70.5006,11.1569 70.3339,16.8236 70.5,22.5C 70.5,26.1667 70.5,29.8333 70.5,33.5C 64.8548,24.889 59.6881,15.889 55,6.5C 52.7569,4.71805 50.2569,4.21805 47.5,5C 38.6046,9.941 29.938,15.1077 21.5,20.5C 14.8106,23.2624 8.64389,26.9291 3,31.5C 2.33333,32.8333 2.33333,34.1667 3,35.5C 6.17875,41.1939 9.34542,46.8606 12.5,52.5C 16.5682,60.3015 20.9015,67.9682 25.5,75.5C 26.5207,74.0986 27.5207,72.7653 28.5,71.5C 26.3643,78.5738 24.031,85.5738 21.5,92.5C 19.8333,96.5 18.1667,100.5 16.5,104.5C 15.8826,104.611 15.3826,104.944 15,105.5C 14.7391,108.663 13.9057,111.663 12.5,114.5C 12.9585,118.163 14.7918,119.496 18,118.5C 20.5969,121.325 24.2636,123.325 29,124.5C 29.772,124.355 30.4387,124.022 31,123.5C 33.0387,126.531 35.7053,127.531 39,126.5C 41.5969,129.325 45.2636,131.325 50,132.5C 50.772,132.355 51.4387,132.022 52,131.5C 54.0387,134.531 56.7053,135.531 60,134.5C 61.041,135.471 61.8743,136.471 62.5,137.5C 41.5,137.5 20.5,137.5 -0.5,137.5C -0.5,91.5 -0.5,45.5 -0.5,-0.5 Z"/></g>
<g><path style="opacity:1" fill="#fefefe" d="M 135.5,-0.5 C 142.167,-0.5 148.833,-0.5 155.5,-0.5C 155.5,31.5 155.5,63.5 155.5,95.5C 149.066,86.8218 142.732,77.9885 136.5,69C 138.361,67.9717 139.695,66.4717 140.5,64.5C 139.916,54.3848 139.916,44.2181 140.5,34C 140.418,23.812 139.918,13.6453 139,3.5C 138.31,1.64977 137.144,0.316435 135.5,-0.5 Z"/></g>
<g><path style="opacity:1" fill="#eae9ea" d="M 113.5,-0.5 C 120.833,-0.5 128.167,-0.5 135.5,-0.5C 137.144,0.316435 138.31,1.64977 139,3.5C 139.918,13.6453 140.418,23.812 140.5,34C 139.916,44.2181 139.916,54.3848 140.5,64.5C 139.695,66.4717 138.361,67.9717 136.5,69C 142.732,77.9885 149.066,86.8218 155.5,95.5C 155.5,97.8333 155.5,100.167 155.5,102.5C 141.659,112.505 127.326,122.672 112.5,133C 107.543,134.683 104.21,133.183 102.5,128.5C 104.782,129.39 107.115,129.556 109.5,129C 116.014,124.637 122.347,120.137 128.5,115.5C 135.643,111.092 142.643,106.425 149.5,101.5C 151.969,98.3259 152.136,94.9926 150,91.5C 144.478,83.7663 138.978,76.0996 133.5,68.5C 130.082,62.6631 126.416,56.9964 122.5,51.5C 124.371,51.8588 125.871,52.8588 127,54.5C 128.796,57.927 130.963,61.0937 133.5,64C 134.332,64.6877 134.998,64.521 135.5,63.5C 136.174,54.2128 136.174,44.8795 135.5,35.5C 135.517,25.1434 135.017,14.8101 134,4.5C 133.167,3.66667 132.333,2.83333 131.5,2C 115.305,1.17274 99.3045,1.67274 83.5,3.5C 80.5,3.5 77.5,3.5 74.5,3.5C 74.6107,2.88258 74.944,2.38258 75.5,2C 88.3159,1.07075 100.983,0.23742 113.5,-0.5 Z"/></g>
<g><path style="opacity:1" fill="#ee92a4" d="M 135.5,35.5 C 132.933,35.1455 130.433,34.4788 128,33.5C 126.989,34.0556 126.156,34.7222 125.5,35.5C 125.349,30.3511 122.682,28.0178 117.5,28.5C 114.526,25.8621 111.526,23.1954 108.5,20.5C 108.833,14.8333 106.167,12.1667 100.5,12.5C 99.2134,9.59388 98.2134,6.59388 97.5,3.5C 92.8333,3.5 88.1667,3.5 83.5,3.5C 99.3045,1.67274 115.305,1.17274 131.5,2C 132.333,2.83333 133.167,3.66667 134,4.5C 135.017,14.8101 135.517,25.1434 135.5,35.5 Z"/></g>
<g><path style="opacity:1" fill="#e85f79" d="M 74.5,3.5 C 77.5,3.5 80.5,3.5 83.5,3.5C 88.1667,3.5 92.8333,3.5 97.5,3.5C 98.2134,6.59388 99.2134,9.59388 100.5,12.5C 98.8868,12.9443 97.7202,13.9443 97,15.5C 96.5008,20.1548 96.3342,24.8215 96.5,29.5C 92.1539,29.3343 87.8206,29.501 83.5,30C 82.6266,31.045 81.6266,31.8783 80.5,32.5C 77.6872,32.4519 75.0205,31.7853 72.5,30.5C 71.8324,27.6944 71.1657,25.0277 70.5,22.5C 70.3339,16.8236 70.5006,11.1569 71,5.5C 72.1127,4.69499 73.2794,4.02832 74.5,3.5 Z"/></g>
<g><path style="opacity:1" fill="#fcd04f" d="M 70.5,33.5 C 71.4304,40.7771 71.7637,48.1104 71.5,55.5C 70.5098,49.3554 70.1765,43.0221 70.5,36.5C 66.8455,36.9422 63.1788,37.2756 59.5,37.5C 60.9348,33.0522 59.2682,30.3855 54.5,29.5C 50.4832,31.5084 46.4832,33.5084 42.5,35.5C 35.3324,30.7481 28.3324,25.7481 21.5,20.5C 29.938,15.1077 38.6046,9.941 47.5,5C 50.2569,4.21805 52.7569,4.71805 55,6.5C 59.6881,15.889 64.8548,24.889 70.5,33.5 Z"/></g>
<g><path style="opacity:1" fill="#fef9fa" d="M 100.5,12.5 C 106.167,12.1667 108.833,14.8333 108.5,20.5C 108.5,23.1667 108.5,25.8333 108.5,28.5C 111.5,28.5 114.5,28.5 117.5,28.5C 122.682,28.0178 125.349,30.3511 125.5,35.5C 125.141,37.371 124.141,38.871 122.5,40C 118.179,40.499 113.846,40.6657 109.5,40.5C 109.779,45.5947 109.445,50.5947 108.5,55.5C 105.564,57.6564 102.397,57.9897 99,56.5C 97.6115,51.6278 97.1115,46.6278 97.5,41.5C 92.8215,41.6658 88.1548,41.4992 83.5,41C 80.8748,38.8038 79.8748,35.9705 80.5,32.5C 81.6266,31.8783 82.6266,31.045 83.5,30C 87.8206,29.501 92.1539,29.3343 96.5,29.5C 96.3342,24.8215 96.5008,20.1548 97,15.5C 97.7202,13.9443 98.8868,12.9443 100.5,12.5 Z"/></g>
<g><path style="opacity:1" fill="#fcc930" d="M 21.5,20.5 C 28.3324,25.7481 35.3324,30.7481 42.5,35.5C 36.7271,39.2257 30.7271,42.7257 24.5,46C 22.771,47.7889 22.1043,49.9556 22.5,52.5C 19.1667,52.5 15.8333,52.5 12.5,52.5C 9.34542,46.8606 6.17875,41.1939 3,35.5C 2.33333,34.1667 2.33333,32.8333 3,31.5C 8.64389,26.9291 14.8106,23.2624 21.5,20.5 Z"/></g>
<g><path style="opacity:1" fill="#e7617a" d="M 108.5,20.5 C 111.526,23.1954 114.526,25.8621 117.5,28.5C 114.5,28.5 111.5,28.5 108.5,28.5C 108.5,25.8333 108.5,23.1667 108.5,20.5 Z"/></g>
<g><path style="opacity:1" fill="#fefcf8" d="M 59.5,37.5 C 59.0472,38.4584 58.3805,39.2917 57.5,40C 49.2757,44.2742 41.2757,48.7742 33.5,53.5C 30.7719,55.2881 27.7719,55.7881 24.5,55C 23.9341,54.0053 23.2674,53.172 22.5,52.5C 22.1043,49.9556 22.771,47.7889 24.5,46C 30.7271,42.7257 36.7271,39.2257 42.5,35.5C 46.4832,33.5084 50.4832,31.5084 54.5,29.5C 59.2682,30.3855 60.9348,33.0522 59.5,37.5 Z"/></g>
<g><path style="opacity:1" fill="#eb788e" d="M 70.5,22.5 C 71.1657,25.0277 71.8324,27.6944 72.5,30.5C 75.0205,31.7853 77.6872,32.4519 80.5,32.5C 79.8748,35.9705 80.8748,38.8038 83.5,41C 88.1548,41.4992 92.8215,41.6658 97.5,41.5C 97.1115,46.6278 97.6115,51.6278 99,56.5C 102.397,57.9897 105.564,57.6564 108.5,55.5C 108.5,56.1667 108.833,56.5 109.5,56.5C 106.319,58.5917 103.319,60.925 100.5,63.5C 97.6339,65.4325 94.6339,67.0991 91.5,68.5C 85.8333,68.5 80.1667,68.5 74.5,68.5C 72.3939,66.2812 71.3939,63.6145 71.5,60.5C 71.5,58.8333 71.5,57.1667 71.5,55.5C 71.7637,48.1104 71.4304,40.7771 70.5,33.5C 70.5,29.8333 70.5,26.1667 70.5,22.5 Z"/></g>
<g><path style="opacity:1" fill="#e7607a" d="M 135.5,35.5 C 136.174,44.8795 136.174,54.2128 135.5,63.5C 134.998,64.521 134.332,64.6877 133.5,64C 130.963,61.0937 128.796,57.927 127,54.5C 125.871,52.8588 124.371,51.8588 122.5,51.5C 117.388,51.2255 113.055,52.8922 109.5,56.5C 108.833,56.5 108.5,56.1667 108.5,55.5C 109.445,50.5947 109.779,45.5947 109.5,40.5C 113.846,40.6657 118.179,40.499 122.5,40C 124.141,38.871 125.141,37.371 125.5,35.5C 126.156,34.7222 126.989,34.0556 128,33.5C 130.433,34.4788 132.933,35.1455 135.5,35.5 Z"/></g>
<g><path style="opacity:1" fill="#fbc830" d="M 71.5,55.5 C 71.5,57.1667 71.5,58.8333 71.5,60.5C 68.9959,61.5839 66.6626,62.9172 64.5,64.5C 56.3172,62.41 48.3172,59.7433 40.5,56.5C 37.9217,56.0195 35.5884,55.0195 33.5,53.5C 41.2757,48.7742 49.2757,44.2742 57.5,40C 58.3805,39.2917 59.0472,38.4584 59.5,37.5C 63.1788,37.2756 66.8455,36.9422 70.5,36.5C 70.1765,43.0221 70.5098,49.3554 71.5,55.5 Z"/></g>
<g><path style="opacity:1" fill="#fcd76b" d="M 12.5,52.5 C 15.8333,52.5 19.1667,52.5 22.5,52.5C 23.2674,53.172 23.9341,54.0053 24.5,55C 27.7719,55.7881 30.7719,55.2881 33.5,53.5C 35.5884,55.0195 37.9217,56.0195 40.5,56.5C 36.7396,55.7736 34.073,57.1069 32.5,60.5C 30,63.6599 28.6667,67.3266 28.5,71.5C 27.5207,72.7653 26.5207,74.0986 25.5,75.5C 20.9015,67.9682 16.5682,60.3015 12.5,52.5 Z"/></g>
<g><path style="opacity:1" fill="#4eb0e3" d="M 122.5,51.5 C 126.416,56.9964 130.082,62.6631 133.5,68.5C 131.19,74.477 128.524,80.1437 125.5,85.5C 123.712,85.7852 122.045,85.4519 120.5,84.5C 122.152,79.9513 122.652,75.2846 122,70.5C 118.925,67.9406 115.925,67.9406 113,70.5C 111.751,74.402 110.918,78.402 110.5,82.5C 108.265,82.7947 106.265,82.4614 104.5,81.5C 104.66,75.1111 103.327,69.1111 100.5,63.5C 103.319,60.925 106.319,58.5917 109.5,56.5C 113.055,52.8922 117.388,51.2255 122.5,51.5 Z"/></g>
<g><path style="opacity:1" fill="#979ccc" d="M 40.5,56.5 C 48.3172,59.7433 56.3172,62.41 64.5,64.5C 66.1131,65.6923 67.7798,66.6923 69.5,67.5C 67.4742,70.5178 65.4742,73.5178 63.5,76.5C 60.0399,73.6225 56.8732,73.9559 54,77.5C 53.3224,79.5976 53.4891,81.5976 54.5,83.5C 52.5659,84.1103 50.8993,85.1103 49.5,86.5C 46.6887,86.1743 44.022,85.3409 41.5,84C 35.3196,82.6803 32.3196,85.1803 32.5,91.5C 29.0381,92.4816 25.3714,92.815 21.5,92.5C 24.031,85.5738 26.3643,78.5738 28.5,71.5C 30.6418,68.1996 31.9751,64.533 32.5,60.5C 34.073,57.1069 36.7396,55.7736 40.5,56.5 Z"/></g>
<g><path style="opacity:1" fill="#ece8e7" d="M 71.5,60.5 C 71.3939,63.6145 72.3939,66.2812 74.5,68.5C 72.7839,68.3713 71.1172,68.038 69.5,67.5C 67.7798,66.6923 66.1131,65.6923 64.5,64.5C 66.6626,62.9172 68.9959,61.5839 71.5,60.5 Z"/></g>
<g><path style="opacity:1" fill="#ddd8d6" d="M 32.5,60.5 C 31.9751,64.533 30.6418,68.1996 28.5,71.5C 28.6667,67.3266 30,63.6599 32.5,60.5 Z"/></g>
<g><path style="opacity:1" fill="#858cc4" d="M 69.5,67.5 C 71.1172,68.038 72.7839,68.3713 74.5,68.5C 77.3135,70.0697 80.3135,71.4031 83.5,72.5C 83.6107,73.1174 83.944,73.6174 84.5,74C 81.0607,76.1386 77.894,78.6386 75,81.5C 74.3333,84.1667 74.3333,86.8333 75,89.5C 75.3826,90.056 75.8826,90.3893 76.5,90.5C 77.9009,93.6339 79.5675,96.6339 81.5,99.5C 79.7816,100.224 77.9483,100.891 76,101.5C 75.7679,100.263 75.2679,99.2625 74.5,98.5C 73.657,96.8267 72.3237,95.66 70.5,95C 63.1998,92.6291 56.1998,89.7958 49.5,86.5C 50.8993,85.1103 52.5659,84.1103 54.5,83.5C 62.4892,87.5085 65.4892,85.1751 63.5,76.5C 65.4742,73.5178 67.4742,70.5178 69.5,67.5 Z"/></g>
<g><path style="opacity:1" fill="#efeff1" d="M 74.5,68.5 C 80.1667,68.5 85.8333,68.5 91.5,68.5C 89.6855,71.4074 87.0188,72.7407 83.5,72.5C 80.3135,71.4031 77.3135,70.0697 74.5,68.5 Z"/></g>
<g><path style="opacity:1" fill="#68bbe7" d="M 100.5,63.5 C 103.327,69.1111 104.66,75.1111 104.5,81.5C 101.813,81.3359 99.146,81.5026 96.5,82C 93.8333,85 93.8333,88 96.5,91C 99.5787,91.9728 102.579,92.8061 105.5,93.5C 104.624,93.3691 103.957,93.7025 103.5,94.5C 101.3,101.894 98.2997,108.894 94.5,115.5C 88.7451,106.99 82.7451,98.6568 76.5,90.5C 75.8826,90.3893 75.3826,90.056 75,89.5C 74.3333,86.8333 74.3333,84.1667 75,81.5C 77.894,78.6386 81.0607,76.1386 84.5,74C 83.944,73.6174 83.6107,73.1174 83.5,72.5C 87.0188,72.7407 89.6855,71.4074 91.5,68.5C 94.6339,67.0991 97.6339,65.4325 100.5,63.5 Z"/></g>
<g><path style="opacity:1" fill="#f9fcfd" d="M 125.5,85.5 C 128.083,86.2239 130.749,87.0572 133.5,88C 136.507,92.8326 135.173,95.9993 129.5,97.5C 128.151,97.1543 126.817,96.821 125.5,96.5C 123.236,95.7814 120.903,95.448 118.5,95.5C 118.303,99.6224 117.47,103.622 116,107.5C 112.661,110.299 109.661,109.966 107,106.5C 107.002,102.14 107.502,97.8071 108.5,93.5C 107.5,93.5 106.5,93.5 105.5,93.5C 102.579,92.8061 99.5787,91.9728 96.5,91C 93.8333,88 93.8333,85 96.5,82C 99.146,81.5026 101.813,81.3359 104.5,81.5C 106.265,82.4614 108.265,82.7947 110.5,82.5C 110.918,78.402 111.751,74.402 113,70.5C 115.925,67.9406 118.925,67.9406 122,70.5C 122.652,75.2846 122.152,79.9513 120.5,84.5C 122.045,85.4519 123.712,85.7852 125.5,85.5 Z"/></g>
<g><path style="opacity:1" fill="#f8f9fb" d="M 63.5,76.5 C 65.4892,85.1751 62.4892,87.5085 54.5,83.5C 53.4891,81.5976 53.3224,79.5976 54,77.5C 56.8732,73.9559 60.0399,73.6225 63.5,76.5 Z"/></g>
<g><path style="opacity:1" fill="#90cded" d="M 133.5,68.5 C 138.978,76.0996 144.478,83.7663 150,91.5C 152.136,94.9926 151.969,98.3259 149.5,101.5C 142.643,106.425 135.643,111.092 128.5,115.5C 126.532,109.356 125.532,103.022 125.5,96.5C 126.817,96.821 128.151,97.1543 129.5,97.5C 135.173,95.9993 136.507,92.8326 133.5,88C 130.749,87.0572 128.083,86.2239 125.5,85.5C 128.524,80.1437 131.19,74.477 133.5,68.5 Z"/></g>
<g><path style="opacity:1" fill="#fafafc" d="M 49.5,86.5 C 56.1998,89.7958 63.1998,92.6291 70.5,95C 72.3237,95.66 73.657,96.8267 74.5,98.5C 74.1658,106.491 70.4991,108.491 63.5,104.5C 52.7971,100.98 42.4637,96.6466 32.5,91.5C 32.3196,85.1803 35.3196,82.6803 41.5,84C 44.022,85.3409 46.6887,86.1743 49.5,86.5 Z"/></g>
<g><path style="opacity:1" fill="#858ac4" d="M 32.5,91.5 C 42.4637,96.6466 52.7971,100.98 63.5,104.5C 60.8211,106.601 57.9877,108.601 55,110.5C 54.7679,109.263 54.2679,108.263 53.5,107.5C 52.1724,103.746 49.5058,102.579 45.5,104C 43.5218,106.497 43.0218,109.331 44,112.5C 44.8159,113.823 45.9826,114.489 47.5,114.5C 45.7583,117.643 43.7583,120.643 41.5,123.5C 33.3124,121.076 25.3124,118.076 17.5,114.5C 15.2085,111.404 14.8752,108.071 16.5,104.5C 18.1667,100.5 19.8333,96.5 21.5,92.5C 25.3714,92.815 29.0381,92.4816 32.5,91.5 Z"/></g>
<g><path style="opacity:1" fill="#4fb1e4" d="M 105.5,93.5 C 106.5,93.5 107.5,93.5 108.5,93.5C 107.502,97.8071 107.002,102.14 107,106.5C 109.661,109.966 112.661,110.299 116,107.5C 117.47,103.622 118.303,99.6224 118.5,95.5C 120.903,95.448 123.236,95.7814 125.5,96.5C 125.532,103.022 126.532,109.356 128.5,115.5C 122.347,120.137 116.014,124.637 109.5,129C 107.115,129.556 104.782,129.39 102.5,128.5C 100.095,124.027 97.4285,119.694 94.5,115.5C 98.2997,108.894 101.3,101.894 103.5,94.5C 103.957,93.7025 104.624,93.3691 105.5,93.5 Z"/></g>
<g><path style="opacity:1" fill="#fdfdfd" d="M 76.5,90.5 C 82.7451,98.6568 88.7451,106.99 94.5,115.5C 97.4285,119.694 100.095,124.027 102.5,128.5C 104.21,133.183 107.543,134.683 112.5,133C 127.326,122.672 141.659,112.505 155.5,102.5C 155.5,114.167 155.5,125.833 155.5,137.5C 128.167,137.5 100.833,137.5 73.5,137.5C 75.6014,133.247 76.6014,128.913 76.5,124.5C 79.0237,117.285 81.6904,110.118 84.5,103C 83.3636,101.855 82.3636,100.688 81.5,99.5C 79.5675,96.6339 77.9009,93.6339 76.5,90.5 Z"/></g>
<g><path style="opacity:1" fill="#f8f9fb" d="M 53.5,107.5 C 54.3234,112.339 52.3234,114.673 47.5,114.5C 45.9826,114.489 44.8159,113.823 44,112.5C 43.0218,109.331 43.5218,106.497 45.5,104C 49.5058,102.579 52.1724,103.746 53.5,107.5 Z"/></g>
<g><path style="opacity:1" fill="#a3a8d2" d="M 74.5,98.5 C 75.2679,99.2625 75.7679,100.263 76,101.5C 77.9483,100.891 79.7816,100.224 81.5,99.5C 82.3636,100.688 83.3636,101.855 84.5,103C 81.6904,110.118 79.0237,117.285 76.5,124.5C 75.3995,126.277 74.5662,128.277 74,130.5C 72.745,132.594 70.9116,133.594 68.5,133.5C 59.1857,130.952 50.1857,127.618 41.5,123.5C 43.7583,120.643 45.7583,117.643 47.5,114.5C 52.3234,114.673 54.3234,112.339 53.5,107.5C 54.2679,108.263 54.7679,109.263 55,110.5C 57.9877,108.601 60.8211,106.601 63.5,104.5C 70.4991,108.491 74.1658,106.491 74.5,98.5 Z"/></g>
<g><path style="opacity:1" fill="#e8e8ea" d="M 16.5,104.5 C 14.8752,108.071 15.2085,111.404 17.5,114.5C 25.3124,118.076 33.3124,121.076 41.5,123.5C 50.1857,127.618 59.1857,130.952 68.5,133.5C 70.9116,133.594 72.745,132.594 74,130.5C 74.5662,128.277 75.3995,126.277 76.5,124.5C 76.6014,128.913 75.6014,133.247 73.5,137.5C 69.8333,137.5 66.1667,137.5 62.5,137.5C 61.8743,136.471 61.041,135.471 60,134.5C 56.7053,135.531 54.0387,134.531 52,131.5C 51.4387,132.022 50.772,132.355 50,132.5C 45.2636,131.325 41.5969,129.325 39,126.5C 35.7053,127.531 33.0387,126.531 31,123.5C 30.4387,124.022 29.772,124.355 29,124.5C 24.2636,123.325 20.5969,121.325 18,118.5C 14.7918,119.496 12.9585,118.163 12.5,114.5C 13.9057,111.663 14.7391,108.663 15,105.5C 15.3826,104.944 15.8826,104.611 16.5,104.5 Z"/></g>
</svg>
