<?xml version="1.0" encoding="UTF-8"?>
<!DOCTYPE svg PUBLIC "-//W3C//DTD SVG 1.1//EN" "http://www.w3.org/Graphics/SVG/1.1/DTD/svg11.dtd">
<svg xmlns="http://www.w3.org/2000/svg" version="1.1" width="106px" height="131px" style="shape-rendering:geometricPrecision; text-rendering:geometricPrecision; image-rendering:optimizeQuality; fill-rule:evenodd; clip-rule:evenodd" xmlns:xlink="http://www.w3.org/1999/xlink">
<g><path style="opacity:1" fill="#fefdfc" d="M -0.5,-0.5 C 34.8333,-0.5 70.1667,-0.5 105.5,-0.5C 105.5,43.1667 105.5,86.8333 105.5,130.5C 70.1667,130.5 34.8333,130.5 -0.5,130.5C -0.5,86.8333 -0.5,43.1667 -0.5,-0.5 Z"/></g>
<g><path style="opacity:1" fill="#f5c25d" d="M 88.5,29.5 C 88.8417,30.3382 89.5084,30.6716 90.5,30.5C 90.8925,32.2838 91.5592,33.9505 92.5,35.5C 90.9689,36.9245 91.3023,37.5912 93.5,37.5C 94.9936,39.8728 95.3269,42.2061 94.5,44.5C 92.8632,43.7822 91.1966,43.6155 89.5,44C 92.3911,45.2742 95.0578,46.7742 97.5,48.5C 99.463,64.3444 98.6297,80.0111 95,95.5C 86.6788,117.983 70.5121,129.317 46.5,129.5C 35.4996,129.418 25.4996,126.251 16.5,120C 8.85545,109.871 10.1888,101.204 20.5,94C 26.5566,92.8384 32.2233,93.8384 37.5,97C 45.4745,99.5799 52.9745,98.7466 60,94.5C 65.4947,87.9605 64.6614,86.4605 57.5,90C 33.8574,94.0929 18.6907,84.5929 12,61.5C 11.5007,56.5111 11.3341,51.5111 11.5,46.5C 12.1667,45.5 12.8333,44.5 13.5,43.5C 12.8333,43.5 12.1667,43.5 11.5,43.5C 12.0417,40.3273 13.0417,37.3273 14.5,34.5C 16.1368,35.2178 17.8034,35.3845 19.5,35C 18.255,34.2086 16.9217,33.7086 15.5,33.5C 16.1667,31.5 16.8333,29.5 17.5,27.5C 18.1667,27.5 18.5,27.1667 18.5,26.5C 19.983,24.9062 21.483,23.2395 23,21.5C 24.3667,15.7297 26.7,10.3964 30,5.5C 31.439,3.55197 33.2723,2.21864 35.5,1.5C 37.8386,3.64746 39.8386,6.14746 41.5,9C 48.5926,7.6607 55.426,8.49404 62,11.5C 65.1185,9.38513 67.9518,6.88513 70.5,4C 75.9705,2.77941 79.4705,4.94608 81,10.5C 82.8365,15.0108 84.1698,19.6775 85,24.5C 86.8022,25.7893 87.9688,27.4559 88.5,29.5 Z"/></g>
<g><path style="opacity:1" fill="#55475f" d="M 34.5,8.5 C 36.335,9.12225 37.5017,10.4556 38,12.5C 38.662,14.8127 39.162,17.146 39.5,19.5C 29.3853,20.1307 27.7186,16.464 34.5,8.5 Z"/></g>
<g><path style="opacity:1" fill="#51445f" d="M 72.5,10.5 C 73.3764,10.3691 74.0431,10.7025 74.5,11.5C 76.3585,14.5898 76.6919,17.7565 75.5,21C 72.1074,22.1675 69.4408,21.3342 67.5,18.5C 68.3709,15.304 70.0375,12.6373 72.5,10.5 Z"/></g>
<g><path style="opacity:1" fill="#3b3a2c" d="M 40.5,22.5 C 44.1612,22.3501 45.1612,23.8501 43.5,27C 39.7071,27.4866 38.7071,25.9866 40.5,22.5 Z"/></g>
<g><path style="opacity:1" fill="#898196" d="M 18.5,26.5 C 18.5,27.1667 18.1667,27.5 17.5,27.5C 12.8038,27.0967 8.13717,26.43 3.5,25.5C 8.61544,24.1784 13.6154,24.5117 18.5,26.5 Z"/></g>
<g><path style="opacity:1" fill="#292d27" d="M 49.5,25.5 C 51.8568,25.3367 54.1902,25.5034 56.5,26C 56.9574,26.414 57.2907,26.914 57.5,27.5C 53.6253,28.8674 52.792,31.2008 55,34.5C 55.9234,33.2412 56.7568,31.9079 57.5,30.5C 58.8485,32.6114 58.5152,34.4447 56.5,36C 53.8961,35.0509 51.2295,34.7176 48.5,35C 46.5794,33.7592 46.246,32.2592 47.5,30.5C 48.5237,31.8532 49.857,32.5198 51.5,32.5C 51.5,31.1667 51.5,29.8333 51.5,28.5C 48.7524,28.5983 48.0857,27.5983 49.5,25.5 Z"/></g>
<g><path style="opacity:1" fill="#2b2f27" d="M 62.5,24.5 C 65.0838,25.0483 66.0838,26.715 65.5,29.5C 61.7162,29.4747 60.7162,27.8081 62.5,24.5 Z"/></g>
<g><path style="opacity:1" fill="#6b617b" d="M 90.5,30.5 C 89.5084,30.6716 88.8417,30.3382 88.5,29.5C 90.9237,28.9695 93.257,28.1362 95.5,27C 97.5,26.3333 99.5,26.3333 101.5,27C 97.7561,28.0175 94.0895,29.1841 90.5,30.5 Z"/></g>
<g><path style="opacity:1" fill="#f48427" d="M 34.5,28.5 C 39.4928,28.997 40.4928,31.1637 37.5,35C 32.3823,34.8242 31.3823,32.6576 34.5,28.5 Z"/></g>
<g><path style="opacity:1" fill="#f48024" d="M 65.5,32.5 C 70.1585,32.0146 71.4919,33.848 69.5,38C 64.7282,38.8104 63.3948,36.9771 65.5,32.5 Z"/></g>
<g><path style="opacity:1" fill="#786b7b" d="M 15.5,33.5 C 16.9217,33.7086 18.255,34.2086 19.5,35C 17.8034,35.3845 16.1368,35.2178 14.5,34.5C 10.8183,34.6653 7.15159,34.4986 3.5,34C 7.41161,32.2455 11.4116,32.0788 15.5,33.5 Z"/></g>
<g><path style="opacity:1" fill="#665d77" d="M 92.5,35.5 C 96.1817,35.3347 99.8484,35.5014 103.5,36C 100.173,36.6103 96.8394,37.1103 93.5,37.5C 91.3023,37.5912 90.9689,36.9245 92.5,35.5 Z"/></g>
<g><path style="opacity:1" fill="#fefdfa" d="M 50.5,39.5 C 60.0687,39.937 63.9021,44.937 62,54.5C 59.7923,61.1097 55.2923,63.2764 48.5,61C 41.3175,52.9779 41.9842,45.8112 50.5,39.5 Z"/></g>
<g><path style="opacity:1" fill="#77615e" d="M 13.5,43.5 C 14.0024,41.9153 15.0024,41.4153 16.5,42C 15.7562,43.0386 14.7562,43.5386 13.5,43.5 Z"/></g>
<g><path style="opacity:1" fill="#695968" d="M 94.5,44.5 C 96.3779,45.2076 98.0445,46.3743 99.5,48C 98.9056,48.4643 98.2389,48.631 97.5,48.5C 95.0578,46.7742 92.3911,45.2742 89.5,44C 91.1966,43.6155 92.8632,43.7822 94.5,44.5 Z"/></g>
<g><path style="opacity:1" fill="#82798c" d="M 11.5,43.5 C 12.1667,43.5 12.8333,43.5 13.5,43.5C 12.8333,44.5 12.1667,45.5 11.5,46.5C 10.1021,48.1088 8.4354,48.9421 6.5,49C 8.37342,47.2962 10.0401,45.4628 11.5,43.5 Z"/></g>
</svg>
