<?xml version="1.0" encoding="UTF-8"?>
<!DOCTYPE svg PUBLIC "-//W3C//DTD SVG 1.1//EN" "http://www.w3.org/Graphics/SVG/1.1/DTD/svg11.dtd">
<svg xmlns="http://www.w3.org/2000/svg" version="1.1" width="120px" height="157px" style="shape-rendering:geometricPrecision; text-rendering:geometricPrecision; image-rendering:optimizeQuality; fill-rule:evenodd; clip-rule:evenodd" xmlns:xlink="http://www.w3.org/1999/xlink">
<g><path style="opacity:1" fill="#fefefc" d="M -0.5,-0.5 C 17.5,-0.5 35.5,-0.5 53.5,-0.5C 20.0735,6.68582 4.24015,27.3525 6,61.5C 7.77937,69.3538 10.6127,76.6871 14.5,83.5C 19.2709,91.9403 25.9376,98.2736 34.5,102.5C 21.9477,99.272 14.281,103.939 11.5,116.5C 12.0955,121.311 13.2622,125.978 15,130.5C 15.3768,131.942 16.2101,132.942 17.5,133.5C 23.0109,142.771 31.0109,148.937 41.5,152C 78.6095,160.28 103.276,146.447 115.5,110.5C 117.088,105.56 118.421,100.56 119.5,95.5C 119.5,115.833 119.5,136.167 119.5,156.5C 79.5,156.5 39.5,156.5 -0.5,156.5C -0.5,104.167 -0.5,51.8333 -0.5,-0.5 Z"/></g>
<g><path style="opacity:1" fill="#f3ec62" d="M 53.5,-0.5 C 59.1667,-0.5 64.8333,-0.5 70.5,-0.5C 92.7933,3.28421 107.627,15.9509 115,37.5C 116.019,45.0627 117.519,52.396 119.5,59.5C 119.5,71.5 119.5,83.5 119.5,95.5C 118.421,100.56 117.088,105.56 115.5,110.5C 115.663,108.143 115.497,105.81 115,103.5C 104.335,137.082 81.5019,151.915 46.5,148C 36.8102,145.323 28.1436,140.823 20.5,134.5C 19.609,133.89 18.609,133.557 17.5,133.5C 16.2101,132.942 15.3768,131.942 15,130.5C 13.2622,125.978 12.0955,121.311 11.5,116.5C 14.281,103.939 21.9477,99.272 34.5,102.5C 38.0584,104.554 41.2251,107.22 44,110.5C 46.4506,115.58 49.9506,119.747 54.5,123C 64.562,125.05 71.3953,121.217 75,111.5C 76.2752,107.178 77.4419,102.844 78.5,98.5C 78.5,97.5 78.5,96.5 78.5,95.5C 78.719,94.325 78.3857,93.325 77.5,92.5C 65.0655,98.0717 52.0655,99.905 38.5,98C 30.6366,95.6151 23.97,91.4484 18.5,85.5C 17.5423,84.0384 16.3756,82.7051 15,81.5C 14.5357,82.0944 14.369,82.7611 14.5,83.5C 10.6127,76.6871 7.77937,69.3538 6,61.5C 4.24015,27.3525 20.0735,6.68582 53.5,-0.5 Z"/></g>
<g><path style="opacity:1" fill="#fefefb" d="M 70.5,-0.5 C 86.8333,-0.5 103.167,-0.5 119.5,-0.5C 119.5,19.5 119.5,39.5 119.5,59.5C 117.519,52.396 116.019,45.0627 115,37.5C 107.627,15.9509 92.7933,3.28421 70.5,-0.5 Z"/></g>
<g><path style="opacity:1" fill="#f5eb85" d="M 46.5,5.5 C 54.5069,5.33362 62.5069,5.50029 70.5,6C 74.2765,6.59207 77.9431,7.59207 81.5,9C 82.9561,9.42258 83.4561,10.2559 83,11.5C 55.6757,1.41474 33.3424,8.08141 16,31.5C 22.2472,18.4324 32.4138,9.76574 46.5,5.5 Z"/></g>
<g><path style="opacity:1" fill="#fefefa" d="M 56.5,33.5 C 67.5789,32.7444 73.5789,37.9111 74.5,49C 73.939,55.6946 71.2724,61.3612 66.5,66C 59.2944,70.2104 53.4611,68.7104 49,61.5C 44.4782,50.2387 46.9782,40.9054 56.5,33.5 Z"/></g>
<g><path style="opacity:1" fill="#f0eb4b" d="M 18.5,85.5 C 23.97,91.4484 30.6366,95.6151 38.5,98C 52.0655,99.905 65.0655,98.0717 77.5,92.5C 78.3857,93.325 78.719,94.325 78.5,95.5C 66.0091,100.763 53.0091,102.597 39.5,101C 30.8095,98.9059 23.6429,94.4059 18,87.5C 17.3083,86.5632 17.475,85.8966 18.5,85.5 Z"/></g>
<g><path style="opacity:1" fill="#fefdf9" d="M 78.5,98.5 C 77.4419,102.844 76.2752,107.178 75,111.5C 71.3953,121.217 64.562,125.05 54.5,123C 49.9506,119.747 46.4506,115.58 44,110.5C 41.2251,107.22 38.0584,104.554 34.5,102.5C 49.636,106.09 64.3027,104.757 78.5,98.5 Z"/></g>
<g><path style="opacity:1" fill="#ddd13c" d="M 18.5,85.5 C 17.475,85.8966 17.3083,86.5632 18,87.5C 23.6429,94.4059 30.8095,98.9059 39.5,101C 53.0091,102.597 66.0091,100.763 78.5,95.5C 78.5,96.5 78.5,97.5 78.5,98.5C 64.3027,104.757 49.636,106.09 34.5,102.5C 25.9376,98.2736 19.2709,91.9403 14.5,83.5C 14.369,82.7611 14.5357,82.0944 15,81.5C 16.3756,82.7051 17.5423,84.0384 18.5,85.5 Z"/></g>
<g><path style="opacity:1" fill="#f6eb88" d="M 25.5,105.5 C 31.0698,104.416 35.5698,106.083 39,110.5C 39.6667,111.167 39.6667,111.833 39,112.5C 34.8566,109.835 30.3566,109.002 25.5,110C 21.1266,111.713 17.2933,114.213 14,117.5C 14.044,115.721 14.7107,114.055 16,112.5C 18.7901,109.535 21.9567,107.202 25.5,105.5 Z"/></g>
<g><path style="opacity:1" fill="#f0eb4b" d="M 115.5,110.5 C 111.389,117.364 107.223,124.364 103,131.5C 86.9145,149.304 67.0812,155.471 43.5,150C 34.9876,147.162 27.4876,142.662 21,136.5C 20.5357,135.906 20.369,135.239 20.5,134.5C 28.1436,140.823 36.8102,145.323 46.5,148C 81.5019,151.915 104.335,137.082 115,103.5C 115.497,105.81 115.663,108.143 115.5,110.5 Z"/></g>
<g><path style="opacity:1" fill="#ddd141" d="M 115.5,110.5 C 103.276,146.447 78.6095,160.28 41.5,152C 31.0109,148.937 23.0109,142.771 17.5,133.5C 18.609,133.557 19.609,133.89 20.5,134.5C 20.369,135.239 20.5357,135.906 21,136.5C 27.4876,142.662 34.9876,147.162 43.5,150C 67.0812,155.471 86.9145,149.304 103,131.5C 107.223,124.364 111.389,117.364 115.5,110.5 Z"/></g>
</svg>
