<?xml version="1.0" encoding="UTF-8"?>
<!DOCTYPE svg PUBLIC "-//W3C//DTD SVG 1.1//EN" "http://www.w3.org/Graphics/SVG/1.1/DTD/svg11.dtd">
<svg xmlns="http://www.w3.org/2000/svg" version="1.1" width="107px" height="164px" style="shape-rendering:geometricPrecision; text-rendering:geometricPrecision; image-rendering:optimizeQuality; fill-rule:evenodd; clip-rule:evenodd" xmlns:xlink="http://www.w3.org/1999/xlink">
<g><path style="opacity:1" fill="#fefefe" d="M -0.5,-0.5 C 10.5,-0.5 21.5,-0.5 32.5,-0.5C 29.9672,2.6044 28.9672,6.27106 29.5,10.5C 30.4346,19.662 31.9346,28.662 34,37.5C 26.8333,42 19.6667,46.5 12.5,51C 4.9839,58.2493 3.81724,66.416 9,75.5C 16.4321,83.6106 24.7654,84.6106 34,78.5C 34.4999,95.1633 34.6666,111.83 34.5,128.5C 28.0749,128.13 21.7416,128.63 15.5,130C 6.51511,136.025 4.01511,144.191 8,154.5C 10.5054,158.811 14.0054,161.811 18.5,163.5C 12.1667,163.5 5.83333,163.5 -0.5,163.5C -0.5,108.833 -0.5,54.1667 -0.5,-0.5 Z"/></g>
<g><path style="opacity:1" fill="#fefefe" d="M 37.5,-0.5 C 60.5,-0.5 83.5,-0.5 106.5,-0.5C 106.5,54.1667 106.5,108.833 106.5,163.5C 100.167,163.5 93.8333,163.5 87.5,163.5C 99.1171,158.534 102.95,149.867 99,137.5C 92.9695,129.118 84.8029,126.118 74.5,128.5C 74.6666,99.4981 74.5,70.4981 74,41.5C 73.5,40.5 73,39.5 72.5,38.5C 77.7067,28.3932 80.54,17.7265 81,6.5C 77.588,0.849921 73.4213,0.183255 68.5,4.5C 63.5596,12.0631 61.2263,20.3964 61.5,29.5C 56.453,29.3375 51.453,29.6708 46.5,30.5C 46.7063,21.5063 45.2063,12.8397 42,4.5C 40.6343,2.63834 39.1343,0.971672 37.5,-0.5 Z"/></g>
<g><path style="opacity:1" fill="#fbcbab" d="M 32.5,-0.5 C 34.1667,-0.5 35.8333,-0.5 37.5,-0.5C 39.1343,0.971672 40.6343,2.63834 42,4.5C 45.2063,12.8397 46.7063,21.5063 46.5,30.5C 51.453,29.6708 56.453,29.3375 61.5,29.5C 61.2263,20.3964 63.5596,12.0631 68.5,4.5C 73.4213,0.183255 77.588,0.849921 81,6.5C 80.54,17.7265 77.7067,28.3932 72.5,38.5C 73,39.5 73.5,40.5 74,41.5C 74.5,70.4981 74.6666,99.4981 74.5,128.5C 84.8029,126.118 92.9695,129.118 99,137.5C 102.95,149.867 99.1171,158.534 87.5,163.5C 64.5,163.5 41.5,163.5 18.5,163.5C 14.0054,161.811 10.5054,158.811 8,154.5C 4.01511,144.191 6.51511,136.025 15.5,130C 21.7416,128.63 28.0749,128.13 34.5,128.5C 34.6666,111.83 34.4999,95.1633 34,78.5C 24.7654,84.6106 16.4321,83.6106 9,75.5C 3.81724,66.416 4.9839,58.2493 12.5,51C 19.6667,46.5 26.8333,42 34,37.5C 31.9346,28.662 30.4346,19.662 29.5,10.5C 28.9672,6.27106 29.9672,2.6044 32.5,-0.5 Z"/></g>
<g><path style="opacity:1" fill="#fefcfa" d="M 69.5,10.5 C 71.9032,10.393 73.7365,11.393 75,13.5C 75.6667,17.5 75.6667,21.5 75,25.5C 73.8551,28.4318 73.0218,31.4318 72.5,34.5C 64.8212,33.9823 61.9879,29.9823 64,22.5C 64.6427,17.8805 66.476,13.8805 69.5,10.5 Z"/></g>
<g><path style="opacity:1" fill="#fefcfa" d="M 36.5,8.5 C 39.091,9.25429 40.9243,10.921 42,13.5C 44.0462,19.7551 44.5462,26.0884 43.5,32.5C 41.5,33.5 39.5,34.5 37.5,35.5C 33.4033,28.3669 31.9033,20.7003 33,12.5C 34.0319,10.9733 35.1986,9.63997 36.5,8.5 Z"/></g>
<g><path style="opacity:1" fill="#5b302e" d="M 43.5,38.5 C 46.5242,38.3642 48.0242,39.6975 48,42.5C 46.1434,40.3687 43.9768,39.8687 41.5,41C 42.3805,40.2917 43.0472,39.4584 43.5,38.5 Z"/></g>
<g><path style="opacity:1" fill="#6d413c" d="M 60.5,38.5 C 62.6648,38.1159 64.3315,38.7826 65.5,40.5C 64.467,41.452 63.3004,41.452 62,40.5C 58.2335,42.8961 57.7335,42.2294 60.5,38.5 Z"/></g>
<g><path style="opacity:1" fill="#f48c56" d="M 38.5,43.5 C 42.1378,42.7366 43.6378,44.0699 43,47.5C 38.4155,49.4126 36.9155,48.0793 38.5,43.5 Z"/></g>
<g><path style="opacity:1" fill="#eb4b33" d="M 50.5,42.5 C 52.5273,42.3379 54.5273,42.5045 56.5,43C 57.6091,44.813 56.9424,45.6463 54.5,45.5C 54.762,46.9778 54.4287,48.3112 53.5,49.5C 52.201,47.2418 51.201,44.9084 50.5,42.5 Z"/></g>
<g><path style="opacity:1" fill="#f4864e" d="M 64.5,44.5 C 66.9775,44.0508 68.9775,44.7175 70.5,46.5C 68.9563,48.4461 66.9563,48.9461 64.5,48C 63.3157,46.8545 63.3157,45.6879 64.5,44.5 Z"/></g>
</svg>
