<?xml version="1.0" encoding="UTF-8"?>
<!DOCTYPE svg PUBLIC "-//W3C//DTD SVG 1.1//EN" "http://www.w3.org/Graphics/SVG/1.1/DTD/svg11.dtd">
<svg xmlns="http://www.w3.org/2000/svg" version="1.1" width="90px" height="114px" style="shape-rendering:geometricPrecision; text-rendering:geometricPrecision; image-rendering:optimizeQuality; fill-rule:evenodd; clip-rule:evenodd" xmlns:xlink="http://www.w3.org/1999/xlink">
<g><path style="opacity:1" fill="#fefdfd" d="M -0.5,-0.5 C 22.1667,-0.5 44.8333,-0.5 67.5,-0.5C 55.9816,6.36259 48.6483,16.3626 45.5,29.5C 45.6653,25.8183 45.4986,22.1516 45,18.5C 43.6883,16.3424 42.0217,16.0091 40,17.5C 40.089,26.5499 40.9223,35.5499 42.5,44.5C 22.0535,34.9689 8.22016,40.9689 1,62.5C -0.554916,74.9875 2.61175,85.9875 10.5,95.5C 15.1211,103.805 21.7878,109.805 30.5,113.5C 20.1667,113.5 9.83333,113.5 -0.5,113.5C -0.5,75.5 -0.5,37.5 -0.5,-0.5 Z"/></g>
<g><path style="opacity:1" fill="#fdfdfd" d="M 71.5,-0.5 C 77.5,-0.5 83.5,-0.5 89.5,-0.5C 89.5,19.1667 89.5,38.8333 89.5,58.5C 87.2516,53.678 84.2516,49.3446 80.5,45.5C 69.193,36.2458 57.8596,36.2458 46.5,45.5C 46.5,42.8333 46.5,40.1667 46.5,37.5C 50.7114,35.9017 54.378,33.5684 57.5,30.5C 61.3002,28.0374 63.9668,24.704 65.5,20.5C 66.1667,20.5 66.5,20.1667 66.5,19.5C 68.1079,16.6179 69.4413,13.6179 70.5,10.5C 70.5,10.1667 70.5,9.83333 70.5,9.5C 71.3242,6.23561 71.6576,2.90227 71.5,-0.5 Z"/></g>
<g><path style="opacity:1" fill="#255428" d="M 70.5,9.5 C 70.5,9.83333 70.5,10.1667 70.5,10.5C 63.0615,9.88312 57.7282,12.8831 54.5,19.5C 58.3696,19.7512 62.3696,19.7512 66.5,19.5C 66.5,20.1667 66.1667,20.5 65.5,20.5C 60.6398,20.7383 55.9732,21.7383 51.5,23.5C 53.2645,19.6308 54.7645,15.6308 56,11.5C 56.3333,12.1667 56.6667,12.8333 57,13.5C 58.6255,10.8723 60.6255,8.53895 63,6.5C 63.5074,7.99608 63.0074,9.16274 61.5,10C 64.447,9.84814 67.447,9.68147 70.5,9.5 Z"/></g>
<g><path style="opacity:1" fill="#14a233" d="M 70.5,10.5 C 69.4413,13.6179 68.1079,16.6179 66.5,19.5C 62.3696,19.7512 58.3696,19.7512 54.5,19.5C 57.7282,12.8831 63.0615,9.88312 70.5,10.5 Z"/></g>
<g><path style="opacity:1" fill="#24a03a" d="M 67.5,-0.5 C 68.8333,-0.5 70.1667,-0.5 71.5,-0.5C 71.6576,2.90227 71.3242,6.23561 70.5,9.5C 67.447,9.68147 64.447,9.84814 61.5,10C 63.0074,9.16274 63.5074,7.99608 63,6.5C 60.6255,8.53895 58.6255,10.8723 57,13.5C 56.6667,12.8333 56.3333,12.1667 56,11.5C 54.7645,15.6308 53.2645,19.6308 51.5,23.5C 49.461,24.911 48.461,26.911 48.5,29.5C 47.3263,30.5137 46.6596,31.847 46.5,33.5C 45.5655,32.4324 45.2322,31.099 45.5,29.5C 48.6483,16.3626 55.9816,6.36259 67.5,-0.5 Z"/></g>
<g><path style="opacity:1" fill="#8b5b35" d="M 45.5,29.5 C 45.2322,31.099 45.5655,32.4324 46.5,33.5C 45.6457,35.035 45.6457,36.3684 46.5,37.5C 46.5,40.1667 46.5,42.8333 46.5,45.5C 46.5,46.8333 46.5,48.1667 46.5,49.5C 49.5983,49.4125 49.9316,49.9125 47.5,51C 45.5,51.6667 43.5,51.6667 41.5,51C 42.428,50.6121 43.0946,49.9454 43.5,49C 42.8524,47.5603 42.5191,46.0603 42.5,44.5C 40.9223,35.5499 40.089,26.5499 40,17.5C 42.0217,16.0091 43.6883,16.3424 45,18.5C 45.4986,22.1516 45.6653,25.8183 45.5,29.5 Z"/></g>
<g><path style="opacity:1" fill="#18a335" d="M 65.5,20.5 C 63.9668,24.704 61.3002,28.0374 57.5,30.5C 54.4525,29.7212 51.4525,29.3879 48.5,29.5C 50.0075,27.8185 51.0075,25.8185 51.5,23.5C 55.9732,21.7383 60.6398,20.7383 65.5,20.5 Z"/></g>
<g><path style="opacity:1" fill="#225327" d="M 51.5,23.5 C 51.0075,25.8185 50.0075,27.8185 48.5,29.5C 48.461,26.911 49.461,24.911 51.5,23.5 Z"/></g>
<g><path style="opacity:1" fill="#235b29" d="M 48.5,29.5 C 51.4525,29.3879 54.4525,29.7212 57.5,30.5C 53.5467,30.7617 49.88,31.7617 46.5,33.5C 46.6596,31.847 47.3263,30.5137 48.5,29.5 Z"/></g>
<g><path style="opacity:1" fill="#22a43a" d="M 57.5,30.5 C 54.378,33.5684 50.7114,35.9017 46.5,37.5C 45.6457,36.3684 45.6457,35.035 46.5,33.5C 49.88,31.7617 53.5467,30.7617 57.5,30.5 Z"/></g>
<g><path style="opacity:1" fill="#f9263e" d="M 80.5,45.5 C 76.905,78.2629 58.7383,95.9295 26,98.5C 20.6828,98.087 15.5162,97.087 10.5,95.5C 2.61175,85.9875 -0.554916,74.9875 1,62.5C 8.22016,40.9689 22.0535,34.9689 42.5,44.5C 42.5191,46.0603 42.8524,47.5603 43.5,49C 43.0946,49.9454 42.428,50.6121 41.5,51C 43.5,51.6667 45.5,51.6667 47.5,51C 49.9316,49.9125 49.5983,49.4125 46.5,49.5C 46.5,48.1667 46.5,46.8333 46.5,45.5C 57.8596,36.2458 69.193,36.2458 80.5,45.5 Z"/></g>
<g><path style="opacity:1" fill="#d02639" d="M 80.5,45.5 C 84.2516,49.3446 87.2516,53.678 89.5,58.5C 89.5,65.5 89.5,72.5 89.5,79.5C 84.0642,94.5908 74.3975,105.924 60.5,113.5C 58.1667,113.5 55.8333,113.5 53.5,113.5C 51.0477,111.595 48.2144,110.262 45,109.5C 42.3536,110.667 39.8536,112.001 37.5,113.5C 35.1667,113.5 32.8333,113.5 30.5,113.5C 21.7878,109.805 15.1211,103.805 10.5,95.5C 15.5162,97.087 20.6828,98.087 26,98.5C 58.7383,95.9295 76.905,78.2629 80.5,45.5 Z"/></g>
<g><path style="opacity:1" fill="#fff2f4" d="M 18.5,49.5 C 20.3547,49.272 21.1881,49.9387 21,51.5C 18.8898,55.1157 16.0565,57.7823 12.5,59.5C 13.2719,55.4023 15.2719,52.069 18.5,49.5 Z"/></g>
<g><path style="opacity:1" fill="#ffe8ea" d="M 8.5,65.5 C 9.83333,65.5 11.1667,65.5 12.5,65.5C 13.2436,68.9496 11.9103,70.6162 8.5,70.5C 8.5,68.8333 8.5,67.1667 8.5,65.5 Z"/></g>
<g><path style="opacity:1" fill="#fefbfb" d="M 89.5,79.5 C 89.5,90.8333 89.5,102.167 89.5,113.5C 79.8333,113.5 70.1667,113.5 60.5,113.5C 74.3975,105.924 84.0642,94.5908 89.5,79.5 Z"/></g>
<g><path style="opacity:1" fill="#fdf3f4" d="M 53.5,113.5 C 48.1667,113.5 42.8333,113.5 37.5,113.5C 39.8536,112.001 42.3536,110.667 45,109.5C 48.2144,110.262 51.0477,111.595 53.5,113.5 Z"/></g>
</svg>
