<?xml version="1.0" encoding="UTF-8"?>
<!DOCTYPE svg PUBLIC "-//W3C//DTD SVG 1.1//EN" "http://www.w3.org/Graphics/SVG/1.1/DTD/svg11.dtd">
<svg xmlns="http://www.w3.org/2000/svg" version="1.1" width="167px" height="91px" style="shape-rendering:geometricPrecision; text-rendering:geometricPrecision; image-rendering:optimizeQuality; fill-rule:evenodd; clip-rule:evenodd" xmlns:xlink="http://www.w3.org/1999/xlink">
<g><path style="opacity:1" fill="#fbfbfb" d="M -0.5,-0.5 C 55.1667,-0.5 110.833,-0.5 166.5,-0.5C 166.5,29.8333 166.5,60.1667 166.5,90.5C 158.167,90.5 149.833,90.5 141.5,90.5C 141.183,87.4281 141.516,84.4281 142.5,81.5C 150.28,73.0725 153.446,63.0725 152,51.5C 155,44.8333 158,38.1667 161,31.5C 164.542,21.7237 161.709,18.8904 152.5,23C 149.602,26.9046 147.102,31.0713 145,35.5C 146.321,26.5758 146.987,17.5758 147,8.5C 144.503,6.52185 141.669,6.02185 138.5,7C 136.623,9.25131 135.123,11.7513 134,14.5C 132.175,22.1133 130.675,29.7799 129.5,37.5C 128.511,32.0247 128.178,26.358 128.5,20.5C 128.897,15.0414 128.397,9.70811 127,4.5C 120.969,-0.316301 116.636,1.01703 114,8.5C 113.667,18.5 113.333,28.5 113,38.5C 111.275,29.6604 108.942,20.9937 106,12.5C 102.94,9.0645 99.6068,8.73116 96,11.5C 94.964,13.8701 94.464,16.3701 94.5,19C 96.2228,31.5017 97.8895,44.0017 99.5,56.5C 94.086,54.2538 88.4193,52.5871 82.5,51.5C 73.119,52.1063 70.7857,56.273 75.5,64C 79.1667,65.6667 82.8333,67.3333 86.5,69C 91.3057,73.6264 95.6391,78.6264 99.5,84C 102.854,85.2978 105.188,87.4644 106.5,90.5C 88.8333,90.5 71.1667,90.5 53.5,90.5C 53.238,89.0222 53.5713,87.6888 54.5,86.5C 65.2227,82.0542 70.056,74.0542 69,62.5C 66.6924,57.7176 63.859,53.3843 60.5,49.5C 63.1758,37.2746 64.6758,24.9413 65,12.5C 59.2562,6.58391 54.9229,7.58391 52,15.5C 50.6176,21.1293 49.4509,26.796 48.5,32.5C 47.7321,33.2625 47.2321,34.2625 47,35.5C 46.8299,25.991 46.3299,16.6577 45.5,7.5C 42.4776,-0.337424 37.9776,-1.33742 32,4.5C 31.6667,15.1667 31.3333,25.8333 31,36.5C 24.7308,31.7224 20.2308,33.0557 17.5,40.5C 12.4592,37.139 8.62584,38.139 6,43.5C 7.65737,51.6823 8.99071,60.0156 10,68.5C 11.3105,73.1243 13.6438,77.1243 17,80.5C 17.4983,83.8168 17.665,87.1501 17.5,90.5C 11.5,90.5 5.5,90.5 -0.5,90.5C -0.5,60.1667 -0.5,29.8333 -0.5,-0.5 Z"/></g>
<g><path style="opacity:1" fill="#201d1a" d="M 45.5,7.5 C 45.1681,17.5222 45.5015,27.5222 46.5,37.5C 48.2174,36.3315 48.8841,34.6648 48.5,32.5C 49.4509,26.796 50.6176,21.1293 52,15.5C 54.9229,7.58391 59.2562,6.58391 65,12.5C 64.6758,24.9413 63.1758,37.2746 60.5,49.5C 63.859,53.3843 66.6924,57.7176 69,62.5C 70.056,74.0542 65.2227,82.0542 54.5,86.5C 53.5713,87.6888 53.238,89.0222 53.5,90.5C 52.8333,90.5 52.1667,90.5 51.5,90.5C 51.5,89.5 51.5,88.5 51.5,87.5C 50.325,87.719 49.325,87.3857 48.5,86.5C 55.7151,84.8136 61.2151,80.8136 65,74.5C 68.9743,63.2845 65.4743,55.4511 54.5,51C 49.4015,48.5168 44.0681,47.5168 38.5,48C 37.2028,50.5446 37.3695,53.0446 39,55.5C 42.9397,58.8798 47.1063,61.8798 51.5,64.5C 41.3731,64.1848 35.5398,69.1848 34,79.5C 33.586,79.9574 33.086,80.2907 32.5,80.5C 31.1492,76.9339 31.6492,73.6006 34,70.5C 36.7273,67.2694 39.894,64.6028 43.5,62.5C 41.4956,60.2477 38.9956,58.9143 36,58.5C 31.2485,59.0161 26.7485,60.3495 22.5,62.5C 22.1667,62.1667 21.8333,61.8333 21.5,61.5C 25.4509,58.0972 30.1176,56.4306 35.5,56.5C 35.6882,54.8967 35.1882,53.5634 34,52.5C 31.0194,56.6262 27.5194,57.2928 23.5,54.5C 21.421,59.7067 17.7544,61.3734 12.5,59.5C 11.3452,62.4459 11.1786,65.4459 12,68.5C 14.5382,73.8737 18.0382,78.5404 22.5,82.5C 20.777,84.8676 20.1103,87.5342 20.5,90.5C 19.5,90.5 18.5,90.5 17.5,90.5C 17.665,87.1501 17.4983,83.8168 17,80.5C 13.6438,77.1243 11.3105,73.1243 10,68.5C 8.99071,60.0156 7.65737,51.6823 6,43.5C 8.62584,38.139 12.4592,37.139 17.5,40.5C 20.2308,33.0557 24.7308,31.7224 31,36.5C 31.3333,25.8333 31.6667,15.1667 32,4.5C 37.9776,-1.33742 42.4776,-0.337424 45.5,7.5 Z"/></g>
<g><path style="opacity:1" fill="#f2cba7" d="M 35.5,3.5 C 38.6516,2.95855 41.1516,3.95855 43,6.5C 43.3333,16.8333 43.6667,27.1667 44,37.5C 44.3742,38.4162 44.8742,39.2496 45.5,40C 47.556,40.3108 49.556,40.8108 51.5,41.5C 51.8333,41.1667 52.1667,40.8333 52.5,40.5C 51.675,39.6143 50.675,39.281 49.5,39.5C 50.5705,30.2186 52.7372,21.2186 56,12.5C 58.6324,9.80762 60.9658,10.141 63,13.5C 63.1667,14.8333 63.3333,16.1667 63.5,17.5C 61.6677,28.494 59.8343,39.494 58,50.5C 51.6614,46.7199 44.8281,45.2199 37.5,46C 36.6667,46.8333 35.8333,47.6667 35,48.5C 34.5045,46.5273 34.3379,44.5273 34.5,42.5C 38.5,41.8333 38.5,41.1667 34.5,40.5C 34.1874,28.0867 34.5208,15.7533 35.5,3.5 Z"/></g>
<g><path style="opacity:1" fill="#464646" d="M 45.5,7.5 C 46.3299,16.6577 46.8299,25.991 47,35.5C 47.2321,34.2625 47.7321,33.2625 48.5,32.5C 48.8841,34.6648 48.2174,36.3315 46.5,37.5C 45.5015,27.5222 45.1681,17.5222 45.5,7.5 Z"/></g>
<g><path style="opacity:1" fill="#f2cba6" d="M 23.5,35.5 C 27.1704,35.3266 29.6704,36.9933 31,40.5C 33.1479,44.8108 32.9812,48.9775 30.5,53C 28.8333,53.6667 27.1667,53.6667 25.5,53C 19.97,47.4966 19.3033,41.6632 23.5,35.5 Z"/></g>
<g><path style="opacity:1" fill="#eec8a4" d="M 10.5,40.5 C 14.5257,40.6766 17.359,42.6766 19,46.5C 20.5993,49.9914 20.766,53.4914 19.5,57C 12.251,57.5908 8.58433,54.0908 8.5,46.5C 8.36315,44.1595 9.02981,42.1595 10.5,40.5 Z"/></g>
<g><path style="opacity:1" fill="#f7cfa9" d="M 51.5,90.5 C 41.1667,90.5 30.8333,90.5 20.5,90.5C 20.1103,87.5342 20.777,84.8676 22.5,82.5C 18.0382,78.5404 14.5382,73.8737 12,68.5C 11.1786,65.4459 11.3452,62.4459 12.5,59.5C 17.7544,61.3734 21.421,59.7067 23.5,54.5C 27.5194,57.2928 31.0194,56.6262 34,52.5C 35.1882,53.5634 35.6882,54.8967 35.5,56.5C 30.1176,56.4306 25.4509,58.0972 21.5,61.5C 21.8333,61.8333 22.1667,62.1667 22.5,62.5C 26.7485,60.3495 31.2485,59.0161 36,58.5C 38.9956,58.9143 41.4956,60.2477 43.5,62.5C 39.894,64.6028 36.7273,67.2694 34,70.5C 31.6492,73.6006 31.1492,76.9339 32.5,80.5C 33.086,80.2907 33.586,79.9574 34,79.5C 35.5398,69.1848 41.3731,64.1848 51.5,64.5C 47.1063,61.8798 42.9397,58.8798 39,55.5C 37.3695,53.0446 37.2028,50.5446 38.5,48C 44.0681,47.5168 49.4015,48.5168 54.5,51C 65.4743,55.4511 68.9743,63.2845 65,74.5C 61.2151,80.8136 55.7151,84.8136 48.5,86.5C 49.325,87.3857 50.325,87.719 51.5,87.5C 51.5,88.5 51.5,89.5 51.5,90.5 Z"/></g>
<g><path style="opacity:1" fill="#1e1b1a" d="M 128.5,20.5 C 127.347,26.6529 127.18,32.9863 128,39.5C 128.717,38.9558 129.217,38.2891 129.5,37.5C 130.675,29.7799 132.175,22.1133 134,14.5C 135.123,11.7513 136.623,9.25131 138.5,7C 141.669,6.02185 144.503,6.52185 147,8.5C 146.987,17.5758 146.321,26.5758 145,35.5C 147.102,31.0713 149.602,26.9046 152.5,23C 161.709,18.8904 164.542,21.7237 161,31.5C 158,38.1667 155,44.8333 152,51.5C 153.446,63.0725 150.28,73.0725 142.5,81.5C 141.516,84.4281 141.183,87.4281 141.5,90.5C 140.833,90.5 140.167,90.5 139.5,90.5C 139.5,88.5 139.5,86.5 139.5,84.5C 138.325,84.719 137.325,84.3857 136.5,83.5C 148.029,74.2487 151.696,62.5821 147.5,48.5C 148.53,48.4455 149.697,48.1122 151,47.5C 154.304,40.3921 157.471,33.2255 160.5,26C 159.591,23.6807 157.925,23.0141 155.5,24C 150.372,29.7471 146.372,36.2471 143.5,43.5C 141.129,44.3368 138.796,44.0034 136.5,42.5C 137.689,41.5713 139.022,41.238 140.5,41.5C 142.875,31.256 144.375,20.9227 145,10.5C 141.28,7.78523 138.613,8.78523 137,13.5C 134.95,21.4146 133.284,29.4146 132,37.5C 130.75,42.8094 127.584,44.4761 122.5,42.5C 123.325,41.6143 124.325,41.281 125.5,41.5C 125.667,29.4954 125.5,17.4954 125,5.5C 120.59,3.53666 117.59,4.86999 116,9.5C 115.667,19.8333 115.333,30.1667 115,40.5C 112.667,41.1667 110.333,41.8333 108,42.5C 107.812,40.9387 108.645,40.272 110.5,40.5C 109.31,32.0286 107.477,23.6952 105,15.5C 100.233,10.0422 97.3993,11.0422 96.5,18.5C 98.9872,31.4213 100.487,44.4213 101,57.5C 96.7074,59.0875 92.874,58.2542 89.5,55C 85.5,54.3333 81.5,54.3333 77.5,55C 74.8333,57.3333 74.8333,59.6667 77.5,62C 81.5352,64.0066 85.5352,66.0066 89.5,68C 93.931,73.5206 98.5977,78.854 103.5,84C 106.688,85.3158 110.022,85.8158 113.5,85.5C 113.5,86.5 113.5,87.5 113.5,88.5C 111.219,88.0773 109.552,88.744 108.5,90.5C 107.833,90.5 107.167,90.5 106.5,90.5C 105.188,87.4644 102.854,85.2978 99.5,84C 95.6391,78.6264 91.3057,73.6264 86.5,69C 82.8333,67.3333 79.1667,65.6667 75.5,64C 70.7857,56.273 73.119,52.1063 82.5,51.5C 88.4193,52.5871 94.086,54.2538 99.5,56.5C 97.8895,44.0017 96.2228,31.5017 94.5,19C 94.464,16.3701 94.964,13.8701 96,11.5C 99.6068,8.73116 102.94,9.0645 106,12.5C 108.942,20.9937 111.275,29.6604 113,38.5C 113.333,28.5 113.667,18.5 114,8.5C 116.636,1.01703 120.969,-0.316301 127,4.5C 128.397,9.70811 128.897,15.0414 128.5,20.5 Z"/></g>
<g><path style="opacity:1" fill="#f5cda8" d="M 139.5,90.5 C 129.167,90.5 118.833,90.5 108.5,90.5C 109.552,88.744 111.219,88.0773 113.5,88.5C 113.5,87.5 113.5,86.5 113.5,85.5C 110.022,85.8158 106.688,85.3158 103.5,84C 98.5977,78.854 93.931,73.5206 89.5,68C 85.5352,66.0066 81.5352,64.0066 77.5,62C 74.8333,59.6667 74.8333,57.3333 77.5,55C 81.5,54.3333 85.5,54.3333 89.5,55C 92.874,58.2542 96.7074,59.0875 101,57.5C 100.487,44.4213 98.9872,31.4213 96.5,18.5C 97.3993,11.0422 100.233,10.0422 105,15.5C 107.477,23.6952 109.31,32.0286 110.5,40.5C 108.645,40.272 107.812,40.9387 108,42.5C 110.333,41.8333 112.667,41.1667 115,40.5C 115.333,30.1667 115.667,19.8333 116,9.5C 117.59,4.86999 120.59,3.53666 125,5.5C 125.5,17.4954 125.667,29.4954 125.5,41.5C 124.325,41.281 123.325,41.6143 122.5,42.5C 127.584,44.4761 130.75,42.8094 132,37.5C 133.284,29.4146 134.95,21.4146 137,13.5C 138.613,8.78523 141.28,7.78523 145,10.5C 144.375,20.9227 142.875,31.256 140.5,41.5C 139.022,41.238 137.689,41.5713 136.5,42.5C 138.796,44.0034 141.129,44.3368 143.5,43.5C 146.372,36.2471 150.372,29.7471 155.5,24C 157.925,23.0141 159.591,23.6807 160.5,26C 157.471,33.2255 154.304,40.3921 151,47.5C 149.697,48.1122 148.53,48.4455 147.5,48.5C 151.696,62.5821 148.029,74.2487 136.5,83.5C 137.325,84.3857 138.325,84.719 139.5,84.5C 139.5,86.5 139.5,88.5 139.5,90.5 Z"/></g>
<g><path style="opacity:1" fill="#8d8d8d" d="M 128.5,20.5 C 128.178,26.358 128.511,32.0247 129.5,37.5C 129.217,38.2891 128.717,38.9558 128,39.5C 127.18,32.9863 127.347,26.6529 128.5,20.5 Z"/></g>
<g><path style="opacity:1" fill="#1a1613" d="M 105.5,53.5 C 116.995,52.2858 127.995,53.9524 138.5,58.5C 137.833,58.8333 137.167,59.1667 136.5,59.5C 126.011,56.9194 115.678,54.9194 105.5,53.5 Z"/></g>
<g><path style="opacity:1" fill="#181411" d="M 104.5,59.5 C 111.436,59.8225 118.103,61.3225 124.5,64C 126.709,65.8734 128.542,68.04 130,70.5C 130.798,72.2588 130.631,73.9255 129.5,75.5C 128.14,71.9499 126.14,68.7832 123.5,66C 118.153,63.9962 112.653,62.4962 107,61.5C 105.624,61.3158 104.791,60.6491 104.5,59.5 Z"/></g>
</svg>
