<?xml version="1.0" encoding="UTF-8"?>
<!DOCTYPE svg PUBLIC "-//W3C//DTD SVG 1.1//EN" "http://www.w3.org/Graphics/SVG/1.1/DTD/svg11.dtd">
<svg xmlns="http://www.w3.org/2000/svg" version="1.1" width="166px" height="98px" style="shape-rendering:geometricPrecision; text-rendering:geometricPrecision; image-rendering:optimizeQuality; fill-rule:evenodd; clip-rule:evenodd" xmlns:xlink="http://www.w3.org/1999/xlink">
<g><path style="opacity:1" fill="#fcfcfc" d="M -0.5,-0.5 C 54.8333,-0.5 110.167,-0.5 165.5,-0.5C 165.5,32.1667 165.5,64.8333 165.5,97.5C 157.167,97.5 148.833,97.5 140.5,97.5C 139.441,92.5523 139.274,87.5523 140,82.5C 143.659,79.1884 146.326,75.1884 148,70.5C 149.023,64.207 149.689,57.8737 150,51.5C 153.333,44.1667 156.667,36.8333 160,29.5C 160.833,23.6667 158.333,21.1667 152.5,22C 148.555,25.9459 145.389,30.4459 143,35.5C 144.056,27.2107 144.723,18.8773 145,10.5C 144.626,9.58377 144.126,8.75044 143.5,8C 139.726,6.8175 136.559,7.65083 134,10.5C 130.872,19.5963 128.705,28.9296 127.5,38.5C 126.833,27.8333 126.167,17.1667 125.5,6.5C 119.648,0.504979 115.148,1.50498 112,9.5C 111.667,19.5 111.333,29.5 111,39.5C 109.042,30.7013 106.709,22.0346 104,13.5C 100.021,9.35624 96.3547,9.68957 93,14.5C 94.0745,28.8596 95.5745,43.1929 97.5,57.5C 93.6379,56.5719 89.9712,55.0719 86.5,53C 82.3749,52.1462 78.3749,52.4796 74.5,54C 70.5,57.6667 70.5,61.3333 74.5,65C 82.4409,67.6117 88.6076,72.4451 93,79.5C 96.0584,83.0617 99.5584,86.0617 103.5,88.5C 104.643,91.4977 104.643,94.4977 103.5,97.5C 86.5,97.5 69.5,97.5 52.5,97.5C 52.6813,94.6029 52.3479,91.7695 51.5,89C 69.3528,78.6871 71.6862,65.8537 58.5,50.5C 59.6089,37.8529 59.7755,25.1863 59,12.5C 54.5498,5.76994 50.5498,6.10327 47,13.5C 45.6724,20.435 44.6724,27.435 44,34.5C 37.9085,28.7278 33.0752,29.7278 29.5,37.5C 23.1122,32.6779 18.4455,34.0113 15.5,41.5C 11.1862,38.3564 7.68623,39.023 5,43.5C 5.73141,52.1384 6.73141,60.8051 8,69.5C 9.58434,73.6747 11.9177,77.3413 15,80.5C 15.7847,86.2493 15.6181,91.916 14.5,97.5C 9.5,97.5 4.5,97.5 -0.5,97.5C -0.5,64.8333 -0.5,32.1667 -0.5,-0.5 Z"/></g>
<g><path style="opacity:1" fill="#6e6e6e" d="M 125.5,6.5 C 126.167,17.1667 126.833,27.8333 127.5,38.5C 127.217,39.2891 126.717,39.9558 126,40.5C 125.5,29.1716 125.333,17.8382 125.5,6.5 Z"/></g>
<g><path style="opacity:1" fill="#1a1816" d="M 125.5,6.5 C 125.333,17.8382 125.5,29.1716 126,40.5C 126.717,39.9558 127.217,39.2891 127.5,38.5C 128.705,28.9296 130.872,19.5963 134,10.5C 136.559,7.65083 139.726,6.8175 143.5,8C 144.126,8.75044 144.626,9.58377 145,10.5C 144.723,18.8773 144.056,27.2107 143,35.5C 145.389,30.4459 148.555,25.9459 152.5,22C 158.333,21.1667 160.833,23.6667 160,29.5C 156.667,36.8333 153.333,44.1667 150,51.5C 149.689,57.8737 149.023,64.207 148,70.5C 146.326,75.1884 143.659,79.1884 140,82.5C 139.274,87.5523 139.441,92.5523 140.5,97.5C 139.5,97.5 138.5,97.5 137.5,97.5C 137.5,93.5 137.5,89.5 137.5,85.5C 136.325,85.719 135.325,85.3857 134.5,84.5C 140.607,79.9515 144.441,73.9515 146,66.5C 146.253,61.961 146.753,57.461 147.5,53C 146.899,51.395 145.899,50.0616 144.5,49C 146.075,49.379 147.575,49.2123 149,48.5C 152.229,41.4783 155.062,34.3116 157.5,27C 157.563,24.0585 156.23,23.0585 153.5,24C 148.771,29.9558 144.938,36.4558 142,43.5C 139.551,45.6128 137.051,45.4461 134.5,43C 135.793,42.51 137.127,42.3433 138.5,42.5C 140.984,31.9643 142.15,21.2976 142,10.5C 140.333,9.16667 138.667,9.16667 137,10.5C 136,12.5 135,14.5 134,16.5C 132.651,24.562 130.985,32.562 129,40.5C 127.28,44.9381 124.446,45.7714 120.5,43C 121.448,42.5172 122.448,42.3505 123.5,42.5C 123.667,30.4954 123.5,18.4954 123,6.5C 118.012,3.83261 115.012,5.49927 114,11.5C 113.821,21.7435 113.321,31.9102 112.5,42C 110.444,42.3108 108.444,42.8108 106.5,43.5C 106.167,43.1667 105.833,42.8333 105.5,42.5C 106.751,41.3689 107.751,40.0356 108.5,38.5C 106.864,30.3403 104.697,22.3403 102,14.5C 99.3676,11.8076 97.0342,12.141 95,15.5C 95.4562,25.578 96.7895,35.578 99,45.5C 99.6667,49.8333 99.6667,54.1667 99,58.5C 97.9383,59.0968 96.7716,59.4302 95.5,59.5C 91.024,57.0663 86.1907,55.733 81,55.5C 75.7451,54.4319 73.4117,56.4319 74,61.5C 77.8463,64.2305 82.0129,66.3972 86.5,68C 91.1667,73.3333 95.8333,78.6667 100.5,84C 103.871,85.891 107.538,87.0576 111.5,87.5C 110.332,89.2174 108.665,89.8841 106.5,89.5C 106.5,92.1667 106.5,94.8333 106.5,97.5C 105.5,97.5 104.5,97.5 103.5,97.5C 104.643,94.4977 104.643,91.4977 103.5,88.5C 99.5584,86.0617 96.0584,83.0617 93,79.5C 88.6076,72.4451 82.4409,67.6117 74.5,65C 70.5,61.3333 70.5,57.6667 74.5,54C 78.3749,52.4796 82.3749,52.1462 86.5,53C 89.9712,55.0719 93.6379,56.5719 97.5,57.5C 95.5745,43.1929 94.0745,28.8596 93,14.5C 96.3547,9.68957 100.021,9.35624 104,13.5C 106.709,22.0346 109.042,30.7013 111,39.5C 111.333,29.5 111.667,19.5 112,9.5C 115.148,1.50498 119.648,0.504979 125.5,6.5 Z"/></g>
<g><path style="opacity:1" fill="#f5cda8" d="M 137.5,97.5 C 127.167,97.5 116.833,97.5 106.5,97.5C 106.5,94.8333 106.5,92.1667 106.5,89.5C 108.665,89.8841 110.332,89.2174 111.5,87.5C 107.538,87.0576 103.871,85.891 100.5,84C 95.8333,78.6667 91.1667,73.3333 86.5,68C 82.0129,66.3972 77.8463,64.2305 74,61.5C 73.4117,56.4319 75.7451,54.4319 81,55.5C 86.1907,55.733 91.024,57.0663 95.5,59.5C 96.7716,59.4302 97.9383,59.0968 99,58.5C 99.6667,54.1667 99.6667,49.8333 99,45.5C 96.7895,35.578 95.4562,25.578 95,15.5C 97.0342,12.141 99.3676,11.8076 102,14.5C 104.697,22.3403 106.864,30.3403 108.5,38.5C 107.751,40.0356 106.751,41.3689 105.5,42.5C 105.833,42.8333 106.167,43.1667 106.5,43.5C 108.444,42.8108 110.444,42.3108 112.5,42C 113.321,31.9102 113.821,21.7435 114,11.5C 115.012,5.49927 118.012,3.83261 123,6.5C 123.5,18.4954 123.667,30.4954 123.5,42.5C 122.448,42.3505 121.448,42.5172 120.5,43C 124.446,45.7714 127.28,44.9381 129,40.5C 130.985,32.562 132.651,24.562 134,16.5C 135,14.5 136,12.5 137,10.5C 138.667,9.16667 140.333,9.16667 142,10.5C 142.15,21.2976 140.984,31.9643 138.5,42.5C 137.127,42.3433 135.793,42.51 134.5,43C 137.051,45.4461 139.551,45.6128 142,43.5C 144.938,36.4558 148.771,29.9558 153.5,24C 156.23,23.0585 157.563,24.0585 157.5,27C 155.062,34.3116 152.229,41.4783 149,48.5C 147.575,49.2123 146.075,49.379 144.5,49C 145.899,50.0616 146.899,51.395 147.5,53C 146.753,57.461 146.253,61.961 146,66.5C 144.441,73.9515 140.607,79.9515 134.5,84.5C 135.325,85.3857 136.325,85.719 137.5,85.5C 137.5,89.5 137.5,93.5 137.5,97.5 Z"/></g>
<g><path style="opacity:1" fill="#1c1815" d="M 103.5,54.5 C 111.547,54.2773 119.547,54.7773 127.5,56C 130.721,56.6112 133.721,57.7778 136.5,59.5C 135.667,59.8333 134.833,60.1667 134,60.5C 123.683,57.7985 113.517,55.7985 103.5,54.5 Z"/></g>
<g><path style="opacity:1" fill="#1f1c19" d="M 52.5,97.5 C 51.8333,97.5 51.1667,97.5 50.5,97.5C 49.8413,94.5448 49.5079,91.5448 49.5,88.5C 48.1266,88.6567 46.7932,88.49 45.5,88C 53.0133,86.1622 58.8467,81.9955 63,75.5C 67.0174,64.3645 63.5174,56.5312 52.5,52C 47.5006,49.1086 42.1673,48.1086 36.5,49C 35.2028,51.5446 35.3695,54.0446 37,56.5C 40.9397,59.8798 45.1063,62.8798 49.5,65.5C 39.3247,65.2002 33.4914,70.2002 32,80.5C 30.5135,81.7414 29.6801,81.2414 29.5,79C 31.0241,71.9692 35.0241,66.8025 41.5,63.5C 39.557,61.043 37.057,59.7097 34,59.5C 29.1694,59.7649 24.6694,61.0982 20.5,63.5C 20.1667,63 19.8333,62.5 19.5,62C 20.6819,60.2649 22.3485,59.2649 24.5,59C 27.4781,58.304 30.4781,57.804 33.5,57.5C 33.5445,52.0534 32.5445,51.5534 30.5,56C 27.438,56.7415 24.438,56.5748 21.5,55.5C 19.2901,61.6385 15.4567,62.9718 10,59.5C 9.24784,69.6634 13.0812,77.6634 21.5,83.5C 20.675,84.3857 19.675,84.719 18.5,84.5C 17.8005,88.7978 17.4672,93.1311 17.5,97.5C 16.5,97.5 15.5,97.5 14.5,97.5C 15.6181,91.916 15.7847,86.2493 15,80.5C 11.9177,77.3413 9.58434,73.6747 8,69.5C 6.73141,60.8051 5.73141,52.1384 5,43.5C 7.68623,39.023 11.1862,38.3564 15.5,41.5C 18.4455,34.0113 23.1122,32.6779 29.5,37.5C 33.0752,29.7278 37.9085,28.7278 44,34.5C 44.6724,27.435 45.6724,20.435 47,13.5C 50.5498,6.10327 54.5498,5.76994 59,12.5C 59.7755,25.1863 59.6089,37.8529 58.5,50.5C 71.6862,65.8537 69.3528,78.6871 51.5,89C 52.3479,91.7695 52.6813,94.6029 52.5,97.5 Z"/></g>
<g><path style="opacity:1" fill="#f6cea9" d="M 50.5,97.5 C 39.5,97.5 28.5,97.5 17.5,97.5C 17.4672,93.1311 17.8005,88.7978 18.5,84.5C 19.675,84.719 20.675,84.3857 21.5,83.5C 13.0812,77.6634 9.24784,69.6634 10,59.5C 15.4567,62.9718 19.2901,61.6385 21.5,55.5C 24.438,56.5748 27.438,56.7415 30.5,56C 32.5445,51.5534 33.5445,52.0534 33.5,57.5C 30.4781,57.804 27.4781,58.304 24.5,59C 22.3485,59.2649 20.6819,60.2649 19.5,62C 19.8333,62.5 20.1667,63 20.5,63.5C 24.6694,61.0982 29.1694,59.7649 34,59.5C 37.057,59.7097 39.557,61.043 41.5,63.5C 35.0241,66.8025 31.0241,71.9692 29.5,79C 29.6801,81.2414 30.5135,81.7414 32,80.5C 33.4914,70.2002 39.3247,65.2002 49.5,65.5C 45.1063,62.8798 40.9397,59.8798 37,56.5C 35.3695,54.0446 35.2028,51.5446 36.5,49C 42.1673,48.1086 47.5006,49.1086 52.5,52C 63.5174,56.5312 67.0174,64.3645 63,75.5C 58.8467,81.9955 53.0133,86.1622 45.5,88C 46.7932,88.49 48.1266,88.6567 49.5,88.5C 49.5079,91.5448 49.8413,94.5448 50.5,97.5 Z"/></g>
<g><path style="opacity:1" fill="#f2caa6" d="M 9.5,41.5 C 15.6551,43.4311 18.6551,47.7645 18.5,54.5C 18.4302,55.7716 18.0968,56.9383 17.5,58C 15.5,58.6667 13.5,58.6667 11.5,58C 6.04581,52.8312 5.37914,47.3312 9.5,41.5 Z"/></g>
<g><path style="opacity:1" fill="#f2cba6" d="M 21.5,36.5 C 25.9226,36.7445 28.7559,39.0778 30,43.5C 30.9285,47.2441 30.4285,50.7441 28.5,54C 24.8339,55.271 22.3339,54.1044 21,50.5C 17.6438,45.5322 17.8104,40.8656 21.5,36.5 Z"/></g>
<g><path style="opacity:1" fill="#f2cba6" d="M 34.5,33.5 C 36.7925,33.2436 38.9592,33.5769 41,34.5C 42.3368,38.0257 42.8368,41.6924 42.5,45.5C 38.9202,44.9228 35.9202,45.9228 33.5,48.5C 31.9563,43.2474 32.2896,38.2474 34.5,33.5 Z"/></g>
<g><path style="opacity:1" fill="#f3cba7" d="M 51.5,10.5 C 53.1439,10.2865 54.6439,10.6198 56,11.5C 56.4999,24.4957 56.6666,37.4957 56.5,50.5C 52.832,49.4445 49.1653,48.2778 45.5,47C 44.8617,45.2933 44.8617,43.46 45.5,41.5C 47.3307,42.0522 48.9974,42.0522 50.5,41.5C 47.0684,40.4845 45.7351,38.1512 46.5,34.5C 47.1692,27.813 48.0025,21.1463 49,14.5C 49.6622,13.0161 50.4955,11.6828 51.5,10.5 Z"/></g>
<g><path style="opacity:1" fill="#1d1915" d="M 102.5,60.5 C 109.531,60.4789 116.198,61.9789 122.5,65C 126.603,68.014 128.269,71.8473 127.5,76.5C 126.128,72.9206 124.128,69.754 121.5,67C 116,64.9323 110.333,63.4323 104.5,62.5C 103.287,62.2528 102.62,61.5862 102.5,60.5 Z"/></g>
</svg>
