<?xml version="1.0" encoding="UTF-8"?>
<!DOCTYPE svg PUBLIC "-//W3C//DTD SVG 1.1//EN" "http://www.w3.org/Graphics/SVG/1.1/DTD/svg11.dtd">
<svg xmlns="http://www.w3.org/2000/svg" version="1.1" width="160px" height="124px" style="shape-rendering:geometricPrecision; text-rendering:geometricPrecision; image-rendering:optimizeQuality; fill-rule:evenodd; clip-rule:evenodd" xmlns:xlink="http://www.w3.org/1999/xlink">
<g><path style="opacity:1" fill="#fefcfc" d="M -0.5,-0.5 C 52.8333,-0.5 106.167,-0.5 159.5,-0.5C 159.5,15.5 159.5,31.5 159.5,47.5C 159.167,47.5 158.833,47.5 158.5,47.5C 154.695,28.5333 144.028,15.0333 126.5,7C 100.249,1.88861 82.7495,12.0553 74,37.5C 68.5111,57.3214 69.8444,76.6548 78,95.5C 81.8837,102.622 86.717,108.955 92.5,114.5C 96.581,117.923 100.914,120.923 105.5,123.5C 89.5,123.5 73.5,123.5 57.5,123.5C 62.825,119.24 65.4916,113.573 65.5,106.5C 66.4794,103.375 66.8128,100.042 66.5,96.5C 66.3468,75.3257 66.6802,54.159 67.5,33C 68.25,24.6992 66.9166,16.8658 63.5,9.5C 57.9471,4.52632 51.6138,3.35966 44.5,6C 34.4994,19.3388 21.8327,29.3388 6.5,36C 0.606279,42.7774 0.272946,49.7774 5.5,57C 15.3808,62.5113 24.3808,61.3446 32.5,53.5C 32.8333,56 33.1667,58.5 33.5,61C 32.0566,77.4786 31.5566,93.9786 32,110.5C 32.2321,111.737 32.7321,112.737 33.5,113.5C 35.0642,117.729 37.7308,121.063 41.5,123.5C 27.5,123.5 13.5,123.5 -0.5,123.5C -0.5,82.1667 -0.5,40.8333 -0.5,-0.5 Z"/></g>
<g><path style="opacity:1" fill="#f47373" d="M 63.5,9.5 C 62.8333,9.5 62.5,9.83333 62.5,10.5C 62.4302,43.6734 61.5968,77.0068 60,110.5C 56.7436,117.597 51.2436,120.097 43.5,118C 40.1662,116.669 37.1662,114.835 34.5,112.5C 33.8933,112.624 33.56,112.957 33.5,113.5C 32.7321,112.737 32.2321,111.737 32,110.5C 31.5566,93.9786 32.0566,77.4786 33.5,61C 33.1667,58.5 32.8333,56 32.5,53.5C 24.3808,61.3446 15.3808,62.5113 5.5,57C 0.272946,49.7774 0.606279,42.7774 6.5,36C 21.8327,29.3388 34.4994,19.3388 44.5,6C 51.6138,3.35966 57.9471,4.52632 63.5,9.5 Z"/></g>
<g><path style="opacity:1" fill="#f47373" d="M 158.5,47.5 C 157.732,46.7375 157.232,45.7375 157,44.5C 158.035,61.6752 155.702,78.3419 150,94.5C 137.636,119.686 118.802,126.019 93.5,113.5C 92.8933,113.624 92.56,113.957 92.5,114.5C 86.717,108.955 81.8837,102.622 78,95.5C 69.8444,76.6548 68.5111,57.3214 74,37.5C 82.7495,12.0553 100.249,1.88861 126.5,7C 144.028,15.0333 154.695,28.5333 158.5,47.5 Z"/></g>
<g><path style="opacity:1" fill="#fefcfb" d="M 114.5,33.5 C 116.722,33.178 118.556,33.8446 120,35.5C 125.133,48.0025 126.8,61.0025 125,74.5C 124.415,79.511 123.749,84.511 123,89.5C 121.47,95.0539 117.97,97.2206 112.5,96C 110.959,94.4207 109.792,92.5873 109,90.5C 107.425,85.4548 106.259,80.4548 105.5,75.5C 105.005,64.3891 105.838,53.3891 108,42.5C 109.209,38.7244 111.376,35.7244 114.5,33.5 Z"/></g>
<g><path style="opacity:1" fill="#f26868" d="M 62.5,10.5 C 63.8634,13.6624 64.6967,16.9957 65,20.5C 65.241,37.4983 65.0743,54.4983 64.5,71.5C 64.6667,79.5 64.8333,87.5 65,95.5C 65.3826,96.056 65.8826,96.3893 66.5,96.5C 66.8128,100.042 66.4794,103.375 65.5,106.5C 65.6641,103.813 65.4974,101.146 65,98.5C 64.2706,105.418 62.6039,112.084 60,118.5C 58.5905,119.787 57.0905,120.954 55.5,122C 51.3123,122.176 47.3123,122.676 43.5,123.5C 42.8333,123.5 42.1667,123.5 41.5,123.5C 37.7308,121.063 35.0642,117.729 33.5,113.5C 33.56,112.957 33.8933,112.624 34.5,112.5C 37.1662,114.835 40.1662,116.669 43.5,118C 51.2436,120.097 56.7436,117.597 60,110.5C 61.5968,77.0068 62.4302,43.6734 62.5,10.5 Z"/></g>
<g><path style="opacity:1" fill="#db4747" d="M 114.5,33.5 C 111.376,35.7244 109.209,38.7244 108,42.5C 105.838,53.3891 105.005,64.3891 105.5,75.5C 105.323,82.1344 104.823,82.1344 104,75.5C 103.125,64.7826 103.459,54.1159 105,43.5C 105.774,39.9513 107.107,36.618 109,33.5C 111.332,30.2091 114.165,29.7091 117.5,32C 116.263,32.2321 115.263,32.7321 114.5,33.5 Z"/></g>
<g><path style="opacity:1" fill="#de4b4b" d="M 63.5,9.5 C 66.9166,16.8658 68.25,24.6992 67.5,33C 66.6802,54.159 66.3468,75.3257 66.5,96.5C 65.8826,96.3893 65.3826,96.056 65,95.5C 64.8333,87.5 64.6667,79.5 64.5,71.5C 65.0743,54.4983 65.241,37.4983 65,20.5C 64.6967,16.9957 63.8634,13.6624 62.5,10.5C 62.5,9.83333 62.8333,9.5 63.5,9.5 Z"/></g>
<g><path style="opacity:1" fill="#fefafa" d="M 159.5,80.5 C 159.5,94.8333 159.5,109.167 159.5,123.5C 149.833,123.5 140.167,123.5 130.5,123.5C 140.73,119.105 148.23,111.772 153,101.5C 155.915,94.5979 158.081,87.5979 159.5,80.5 Z"/></g>
<g><path style="opacity:1" fill="#da4b4a" d="M 159.5,53.5 C 159.5,62.5 159.5,71.5 159.5,80.5C 158.081,87.5979 155.915,94.5979 153,101.5C 148.23,111.772 140.73,119.105 130.5,123.5C 123.167,123.5 115.833,123.5 108.5,123.5C 131.21,123.871 146.377,113.205 154,91.5C 157.233,78.8791 159.066,66.2125 159.5,53.5 Z"/></g>
<g><path style="opacity:1" fill="#dd4e4d" d="M 65.5,106.5 C 65.4916,113.573 62.825,119.24 57.5,123.5C 52.8333,123.5 48.1667,123.5 43.5,123.5C 47.3123,122.676 51.3123,122.176 55.5,122C 57.0905,120.954 58.5905,119.787 60,118.5C 62.6039,112.084 64.2706,105.418 65,98.5C 65.4974,101.146 65.6641,103.813 65.5,106.5 Z"/></g>
<g><path style="opacity:1" fill="#f06666" d="M 158.5,47.5 C 158.833,47.5 159.167,47.5 159.5,47.5C 159.5,49.5 159.5,51.5 159.5,53.5C 159.066,66.2125 157.233,78.8791 154,91.5C 146.377,113.205 131.21,123.871 108.5,123.5C 107.5,123.5 106.5,123.5 105.5,123.5C 100.914,120.923 96.581,117.923 92.5,114.5C 92.56,113.957 92.8933,113.624 93.5,113.5C 118.802,126.019 137.636,119.686 150,94.5C 155.702,78.3419 158.035,61.6752 157,44.5C 157.232,45.7375 157.732,46.7375 158.5,47.5 Z"/></g>
</svg>
