<?xml version="1.0" encoding="UTF-8"?>
<!DOCTYPE svg PUBLIC "-//W3C//DTD SVG 1.1//EN" "http://www.w3.org/Graphics/SVG/1.1/DTD/svg11.dtd">
<svg xmlns="http://www.w3.org/2000/svg" version="1.1" width="139px" height="127px" style="shape-rendering:geometricPrecision; text-rendering:geometricPrecision; image-rendering:optimizeQuality; fill-rule:evenodd; clip-rule:evenodd" xmlns:xlink="http://www.w3.org/1999/xlink">
<g><path style="opacity:1" fill="#fcfcfc" d="M -0.5,-0.5 C 45.8333,-0.5 92.1667,-0.5 138.5,-0.5C 138.5,41.8333 138.5,84.1667 138.5,126.5C 130.833,126.5 123.167,126.5 115.5,126.5C 115.5,126.167 115.5,125.833 115.5,125.5C 119.888,124.552 123.388,122.219 126,118.5C 133.493,107.356 135.993,95.1894 133.5,82C 133.252,80.2509 132.252,79.4176 130.5,79.5C 129.89,78.609 129.557,77.609 129.5,76.5C 128.857,73.0125 126.857,70.5125 123.5,69C 119.986,67.4383 116.319,66.605 112.5,66.5C 114.706,60.0696 113.373,54.5696 108.5,50C 107.552,49.5172 106.552,49.3505 105.5,49.5C 106.287,29.9549 96.9537,20.2882 77.5,20.5C 75.8062,8.97286 69.1395,3.47286 57.5,4C 55.5359,5.45095 54.2026,7.28428 53.5,9.5C 52.5184,12.9619 52.185,16.6286 52.5,20.5C 50.5853,20.2155 48.9187,20.5489 47.5,21.5C 44.4842,21.8406 41.8175,23.0073 39.5,25C 38.6634,26.0113 38.33,27.1779 38.5,28.5C 37.8333,29.5 37.1667,30.5 36.5,31.5C 34.8762,31.3601 33.7096,32.0267 33,33.5C 30.9204,38.618 30.0871,43.9513 30.5,49.5C 24.8423,50.8434 22.1756,54.5101 22.5,60.5C 22.5901,62.2278 22.9234,63.8944 23.5,65.5C 12.1947,66.6443 5.02802,72.6443 2,83.5C -0.0746579,98.7181 4.09201,111.885 14.5,123C 16.4068,124.122 18.4068,124.955 20.5,125.5C 20.5,125.833 20.5,126.167 20.5,126.5C 13.5,126.5 6.5,126.5 -0.5,126.5C -0.5,84.1667 -0.5,41.8333 -0.5,-0.5 Z"/></g>
<g><path style="opacity:1" fill="#515151" d="M 53.5,9.5 C 53.5,13.5 53.5,17.5 53.5,21.5C 51.5,21.5 49.5,21.5 47.5,21.5C 48.9187,20.5489 50.5853,20.2155 52.5,20.5C 52.185,16.6286 52.5184,12.9619 53.5,9.5 Z"/></g>
<g><path style="opacity:1" fill="#12110e" d="M 129.5,76.5 C 128.127,76.6567 126.793,76.49 125.5,76C 120.831,71.1118 115.164,69.4451 108.5,71C 104.94,72.7172 101.274,74.2172 97.5,75.5C 93.3021,72.7442 88.6355,71.0775 83.5,70.5C 79.2468,69.986 75.4134,70.986 72,73.5C 72.3605,76.9243 73.3605,80.2577 75,83.5C 75.4983,86.8168 75.665,90.1501 75.5,93.5C 75.5,94.5 75.5,95.5 75.5,96.5C 73.9749,101.579 72.3082,106.746 70.5,112C 74.4192,120.971 80.7525,123.805 89.5,120.5C 97.0384,118.85 104.372,119.517 111.5,122.5C 119.645,121.191 124.812,116.524 127,108.5C 129.518,102.578 131.018,96.4113 131.5,90C 131.554,87.1449 130.888,84.4782 129.5,82C 129.743,81.0979 130.077,80.2646 130.5,79.5C 132.252,79.4176 133.252,80.2509 133.5,82C 135.993,95.1894 133.493,107.356 126,118.5C 123.388,122.219 119.888,124.552 115.5,125.5C 111.818,125.665 108.152,125.499 104.5,125C 99.5691,121.757 94.5691,121.757 89.5,125C 80.1135,127.55 72.9469,124.717 68,116.5C 65.7083,120.788 62.2083,123.622 57.5,125C 50.8747,125.739 44.3747,125.239 38,123.5C 32.2957,124.988 26.4623,125.654 20.5,125.5C 18.4068,124.955 16.4068,124.122 14.5,123C 4.09201,111.885 -0.0746579,98.7181 2,83.5C 5.02802,72.6443 12.1947,66.6443 23.5,65.5C 22.9234,63.8944 22.5901,62.2278 22.5,60.5C 22.1756,54.5101 24.8423,50.8434 30.5,49.5C 30.0871,43.9513 30.9204,38.618 33,33.5C 33.7096,32.0267 34.8762,31.3601 36.5,31.5C 37.0967,31.7352 37.4301,32.2352 37.5,33C 34.7954,38.2097 33.962,43.7097 35,49.5C 43.2285,52.2226 47.3951,57.8893 47.5,66.5C 50.1667,66.5 52.8333,66.5 55.5,66.5C 60.0435,67.1871 64.2102,68.8538 68,71.5C 74.0824,67.1316 80.9157,65.465 88.5,66.5C 88.5409,58.1138 92.5409,52.4471 100.5,49.5C 102.802,38.2699 98.8018,30.1033 88.5,25C 85.1667,24.3333 81.8333,24.3333 78.5,25C 75.1139,26.9477 71.6139,28.4477 68,29.5C 64.4828,28.3294 60.9828,26.996 57.5,25.5C 54.3601,24.3592 51.0267,24.1925 47.5,25C 44.7449,26.9532 41.7449,28.1199 38.5,28.5C 38.33,27.1779 38.6634,26.0113 39.5,25C 41.8175,23.0073 44.4842,21.8406 47.5,21.5C 49.5,21.5 51.5,21.5 53.5,21.5C 53.5,17.5 53.5,13.5 53.5,9.5C 54.2026,7.28428 55.5359,5.45095 57.5,4C 69.1395,3.47286 75.8062,8.97286 77.5,20.5C 96.9537,20.2882 106.287,29.9549 105.5,49.5C 106.552,49.3505 107.552,49.5172 108.5,50C 113.373,54.5696 114.706,60.0696 112.5,66.5C 116.319,66.605 119.986,67.4383 123.5,69C 126.857,70.5125 128.857,73.0125 129.5,76.5 Z"/></g>
<g><path style="opacity:1" fill="#9ab95e" d="M 58.5,7.5 C 69.3333,7.65662 73.9999,12.9899 72.5,23.5C 71.354,24.1449 70.354,24.9783 69.5,26C 68.5,26.6667 67.5,26.6667 66.5,26C 63.5642,23.8131 60.5642,21.8131 57.5,20C 55.9841,15.6414 56.3174,11.4747 58.5,7.5 Z"/></g>
<g><path style="opacity:1" fill="#f4b568" d="M 57.5,25.5 C 56.0222,25.238 54.6888,25.5713 53.5,26.5C 45.8155,38.5293 44.6488,51.1959 50,64.5C 51.9483,65.1094 53.7816,65.776 55.5,66.5C 52.8333,66.5 50.1667,66.5 47.5,66.5C 47.3951,57.8893 43.2285,52.2226 35,49.5C 33.962,43.7097 34.7954,38.2097 37.5,33C 37.4301,32.2352 37.0967,31.7352 36.5,31.5C 37.1667,30.5 37.8333,29.5 38.5,28.5C 41.7449,28.1199 44.7449,26.9532 47.5,25C 51.0267,24.1925 54.3601,24.3592 57.5,25.5 Z"/></g>
<g><path style="opacity:1" fill="#f3cb6f" d="M 55.5,66.5 C 53.7816,65.776 51.9483,65.1094 50,64.5C 44.6488,51.1959 45.8155,38.5293 53.5,26.5C 54.6888,25.5713 56.0222,25.238 57.5,25.5C 60.9828,26.996 64.4828,28.3294 68,29.5C 71.6139,28.4477 75.1139,26.9477 78.5,25C 81.8333,24.3333 85.1667,24.3333 88.5,25C 98.8018,30.1033 102.802,38.2699 100.5,49.5C 92.5409,52.4471 88.5409,58.1138 88.5,66.5C 80.9157,65.465 74.0824,67.1316 68,71.5C 64.2102,68.8538 60.0435,67.1871 55.5,66.5 Z"/></g>
<g><path style="opacity:1" fill="#151108" d="M 50.5,38.5 C 52.7224,38.5587 53.7224,39.7253 53.5,42C 52.1667,46.6667 50.8333,46.6667 49.5,42C 49.6483,40.7441 49.9816,39.5774 50.5,38.5 Z"/></g>
<g><path style="opacity:1" fill="#151109" d="M 83.5,38.5 C 85.7224,38.5587 86.7224,39.7253 86.5,42C 85.1667,46.6667 83.8333,46.6667 82.5,42C 82.6483,40.7441 82.9816,39.5774 83.5,38.5 Z"/></g>
<g><path style="opacity:1" fill="#1e1910" d="M 62.5,41.5 C 64.5996,41.4772 66.4329,42.1439 68,43.5C 69.3333,42.8333 70.6667,42.1667 72,41.5C 75.12,42.5934 75.2867,44.0934 72.5,46C 68.6123,48.2225 65.1123,47.7225 62,44.5C 61.5304,43.4232 61.6971,42.4232 62.5,41.5 Z"/></g>
<g><path style="opacity:1" fill="#9dbb5f" d="M 100.5,53.5 C 108.184,52.4925 111.018,55.8258 109,63.5C 108.691,64.7659 108.191,65.9326 107.5,67C 104.013,68.2454 100.679,69.7454 97.5,71.5C 95.9446,71.278 94.6113,70.6113 93.5,69.5C 91.473,62.2234 93.8064,56.89 100.5,53.5 Z"/></g>
<g><path style="opacity:1" fill="#9cbb5f" d="M 28.5,53.5 C 39.6507,53.3109 44.3174,58.6442 42.5,69.5C 41.3887,70.6113 40.0554,71.278 38.5,71.5C 35.0661,69.7416 31.5661,68.075 28,66.5C 25.858,62.0263 26.0247,57.693 28.5,53.5 Z"/></g>
<g><path style="opacity:1" fill="#e05f71" d="M 24.5,70.5 C 12.9688,88.4612 14.3021,105.461 28.5,121.5C 22.8015,123.514 17.9682,122.18 14,117.5C 8.57123,109.306 5.40456,100.306 4.5,90.5C 4.80197,81.7302 8.80197,75.2302 16.5,71C 19.146,70.5026 21.8127,70.3359 24.5,70.5 Z"/></g>
<g><path style="opacity:1" fill="#f88898" d="M 24.5,70.5 C 29.4,71.6215 34.0666,73.2882 38.5,75.5C 41.5697,74.2946 44.5697,72.7946 47.5,71C 59.4948,68.4104 67.3281,72.9104 71,84.5C 72.5688,98.1261 68.7354,109.959 59.5,120C 57.2318,121.552 54.7318,122.385 52,122.5C 47.3296,120.778 42.4962,119.778 37.5,119.5C 34.2317,119.345 31.2317,120.011 28.5,121.5C 14.3021,105.461 12.9688,88.4612 24.5,70.5 Z"/></g>
<g><path style="opacity:1" fill="#a3be60" d="M 83.5,70.5 C 81.776,73.4543 80.4427,76.621 79.5,80C 79.5572,82.2089 80.5572,83.7089 82.5,84.5C 81.5,84.5 80.5,84.5 79.5,84.5C 79.5,86.1667 79.5,87.8333 79.5,89.5C 78.71,88.3915 78.21,87.0581 78,85.5C 76.9395,88.166 76.1061,90.8327 75.5,93.5C 75.665,90.1501 75.4983,86.8168 75,83.5C 73.3605,80.2577 72.3605,76.9243 72,73.5C 75.4134,70.986 79.2468,69.986 83.5,70.5 Z"/></g>
<g><path style="opacity:1" fill="#b9cc62" d="M 83.5,70.5 C 88.6355,71.0775 93.3021,72.7442 97.5,75.5C 101.274,74.2172 104.94,72.7172 108.5,71C 115.164,69.4451 120.831,71.1118 125.5,76C 126.793,76.49 128.127,76.6567 129.5,76.5C 129.557,77.609 129.89,78.609 130.5,79.5C 130.077,80.2646 129.743,81.0979 129.5,82C 130.888,84.4782 131.554,87.1449 131.5,90C 131.018,96.4113 129.518,102.578 127,108.5C 124.812,116.524 119.645,121.191 111.5,122.5C 104.372,119.517 97.0384,118.85 89.5,120.5C 88.1779,120.67 87.0113,120.337 86,119.5C 80.6748,112.702 77.1748,105.035 75.5,96.5C 75.5,95.5 75.5,94.5 75.5,93.5C 76.1061,90.8327 76.9395,88.166 78,85.5C 78.21,87.0581 78.71,88.3915 79.5,89.5C 80.5676,90.4345 81.901,90.7678 83.5,90.5C 83.7947,88.2646 83.4614,86.2646 82.5,84.5C 80.5572,83.7089 79.5572,82.2089 79.5,80C 80.4427,76.621 81.776,73.4543 83.5,70.5 Z"/></g>
<g><path style="opacity:1" fill="#1c1213" d="M 19.5,84.5 C 20.8333,84.5 22.1667,84.5 23.5,84.5C 23.5,86.5 23.5,88.5 23.5,90.5C 19.9319,90.2407 18.5985,88.2407 19.5,84.5 Z"/></g>
<g><path style="opacity:1" fill="#1a1011" d="M 52.5,84.5 C 53.8333,84.5 55.1667,84.5 56.5,84.5C 56.5,86.5 56.5,88.5 56.5,90.5C 55.1667,90.5 53.8333,90.5 52.5,90.5C 52.5,88.5 52.5,86.5 52.5,84.5 Z"/></g>
<g><path style="opacity:1" fill="#15160c" d="M 82.5,84.5 C 83.4614,86.2646 83.7947,88.2646 83.5,90.5C 81.901,90.7678 80.5676,90.4345 79.5,89.5C 79.5,87.8333 79.5,86.1667 79.5,84.5C 80.5,84.5 81.5,84.5 82.5,84.5 Z"/></g>
<g><path style="opacity:1" fill="#030301" d="M 112.5,84.5 C 113.5,84.5 114.5,84.5 115.5,84.5C 115.5,86.5 115.5,88.5 115.5,90.5C 114.5,90.5 113.5,90.5 112.5,90.5C 112.5,88.5 112.5,86.5 112.5,84.5 Z"/></g>
<g><path style="opacity:1" fill="#160d0e" d="M 32.5,87.5 C 36.4868,88.7052 40.4868,88.7052 44.5,87.5C 44.0655,91.1582 41.8988,92.8248 38,92.5C 34.3972,92.7291 32.5638,91.0624 32.5,87.5 Z"/></g>
<g><path style="opacity:1" fill="#101108" d="M 91.5,87.5 C 95.5132,88.7052 99.5132,88.7052 103.5,87.5C 103.208,91.004 101.208,92.6707 97.5,92.5C 93.7921,92.6707 91.7921,91.004 91.5,87.5 Z"/></g>
<g><path style="opacity:1" fill="#9fbb5f" d="M 75.5,96.5 C 77.1748,105.035 80.6748,112.702 86,119.5C 87.0113,120.337 88.1779,120.67 89.5,120.5C 80.7525,123.805 74.4192,120.971 70.5,112C 72.3082,106.746 73.9749,101.579 75.5,96.5 Z"/></g>
<g><path style="opacity:1" fill="#dfdfdf" d="M 115.5,125.5 C 115.5,125.833 115.5,126.167 115.5,126.5C 83.8333,126.5 52.1667,126.5 20.5,126.5C 20.5,126.167 20.5,125.833 20.5,125.5C 26.4623,125.654 32.2957,124.988 38,123.5C 44.3747,125.239 50.8747,125.739 57.5,125C 62.2083,123.622 65.7083,120.788 68,116.5C 72.9469,124.717 80.1135,127.55 89.5,125C 94.5691,121.757 99.5691,121.757 104.5,125C 108.152,125.499 111.818,125.665 115.5,125.5 Z"/></g>
</svg>
