<?xml version="1.0" encoding="UTF-8"?>
<!DOCTYPE svg PUBLIC "-//W3C//DTD SVG 1.1//EN" "http://www.w3.org/Graphics/SVG/1.1/DTD/svg11.dtd">
<svg xmlns="http://www.w3.org/2000/svg" version="1.1" width="119px" height="131px" style="shape-rendering:geometricPrecision; text-rendering:geometricPrecision; image-rendering:optimizeQuality; fill-rule:evenodd; clip-rule:evenodd" xmlns:xlink="http://www.w3.org/1999/xlink">
<g><path style="opacity:1" fill="#fcfcfc" d="M -0.5,-0.5 C 39.1667,-0.5 78.8333,-0.5 118.5,-0.5C 118.5,43.1667 118.5,86.8333 118.5,130.5C 107.5,130.5 96.5,130.5 85.5,130.5C 85.3337,123.825 85.5004,117.158 86,110.5C 90.5099,106.316 93.8433,101.316 96,95.5C 97.2472,84.6053 99.0806,73.9387 101.5,63.5C 101.813,56.971 98.6459,53.3044 92,52.5C 90.1878,52.4934 88.6878,53.16 87.5,54.5C 87.1667,54 86.8333,53.5 86.5,53C 90.5827,39.0905 92.4161,24.9239 92,10.5C 87.0419,6.28519 82.3752,6.61853 78,11.5C 75.5732,15.5404 73.9065,19.8738 73,24.5C 71.7016,33.9607 69.8683,43.294 67.5,52.5C 66.5128,47.6946 66.1795,42.6946 66.5,37.5C 66.6665,27.1613 66.4998,16.828 66,6.5C 59.2301,-1.75596 53.2301,-1.08929 48,8.5C 46.7359,22.7788 46.0692,37.1121 46,51.5C 43.6667,41.5 41.3333,31.5 39,21.5C 36.9851,13.4349 32.1517,10.6015 24.5,13C 20.6271,17.7853 19.4605,23.2853 21,29.5C 23.8905,43.3938 25.5572,57.3938 26,71.5C 12.0021,85.6403 12.1688,99.8069 26.5,114C 29.5849,115.96 32.7515,117.793 36,119.5C 35.7616,123.109 35.5949,126.775 35.5,130.5C 23.5,130.5 11.5,130.5 -0.5,130.5C -0.5,86.8333 -0.5,43.1667 -0.5,-0.5 Z"/></g>
<g><path style="opacity:1" fill="#191715" d="M 66.5,37.5 C 65.1853,42.6803 65.1853,48.0136 66.5,53.5C 67.1067,53.3764 67.44,53.0431 67.5,52.5C 69.8683,43.294 71.7016,33.9607 73,24.5C 73.9065,19.8738 75.5732,15.5404 78,11.5C 82.3752,6.61853 87.0419,6.28519 92,10.5C 92.4161,24.9239 90.5827,39.0905 86.5,53C 86.8333,53.5 87.1667,54 87.5,54.5C 88.6878,53.16 90.1878,52.4934 92,52.5C 98.6459,53.3044 101.813,56.971 101.5,63.5C 99.0806,73.9387 97.2472,84.6053 96,95.5C 93.8433,101.316 90.5099,106.316 86,110.5C 85.5004,117.158 85.3337,123.825 85.5,130.5C 84.5,130.5 83.5,130.5 82.5,130.5C 81.7255,125.203 81.3921,119.87 81.5,114.5C 80.5,114.5 79.5,114.5 78.5,114.5C 78.281,113.325 78.6143,112.325 79.5,111.5C 90.2945,103.913 95.1278,93.5796 94,80.5C 88.6701,84.8377 84.0034,84.171 80,78.5C 77.675,71.6003 78.5083,65.1003 82.5,59C 77.1049,56.6916 77.4383,55.525 83.5,55.5C 86.2004,43.4908 88.2004,31.3242 89.5,19C 90.6678,11.8205 88.0012,9.4872 81.5,12C 80.5399,13.4194 79.7065,14.9194 79,16.5C 75.9992,29.1743 72.9992,41.841 70,54.5C 67.4671,59.0085 63.9671,59.6751 59.5,56.5C 60.325,55.6143 61.325,55.281 62.5,55.5C 63.2528,39.8375 63.4194,24.1708 63,8.5C 60.4512,4.07453 57.1179,3.40786 53,6.5C 51.2494,8.48991 50.2494,10.8232 50,13.5C 49.6667,26.8333 49.3333,40.1667 49,53.5C 46.1422,55.1784 42.9756,56.1784 39.5,56.5C 38.538,54.1167 39.538,53.1167 42.5,53.5C 40.5776,42.0562 38.0776,30.7229 35,19.5C 31.6453,14.6896 27.9786,14.3562 24,18.5C 23.3333,22.8333 23.3333,27.1667 24,31.5C 26.4448,43.8912 28.9448,56.2245 31.5,68.5C 38.8774,63.9845 46.8774,61.8179 55.5,62C 62.4328,64.6063 64.4328,69.4396 61.5,76.5C 68.2014,76.5049 74.5347,78.0049 80.5,81C 81.3366,82.0113 81.67,83.1779 81.5,84.5C 75.3285,81.848 68.8285,80.1813 62,79.5C 57.4381,80.6861 53.2714,82.8528 49.5,86C 60.8286,90.4555 66.162,98.6221 65.5,110.5C 63.8937,103.8 60.5604,97.9662 55.5,93C 50.8739,89.0835 45.8739,88.2502 40.5,90.5C 39.269,89.3493 39.269,88.1827 40.5,87C 45.9172,84.2097 51.0839,81.043 56,77.5C 58.472,73.8673 58.972,70.034 57.5,66C 42.6645,65.004 30.4979,70.1706 21,81.5C 16.12,98.9028 22.2867,110.736 39.5,117C 41.1341,117.494 42.8008,117.66 44.5,117.5C 44.5,118.5 44.5,119.5 44.5,120.5C 42.8333,120.5 41.1667,120.5 39.5,120.5C 39.3841,123.86 39.0508,127.193 38.5,130.5C 37.5,130.5 36.5,130.5 35.5,130.5C 35.5949,126.775 35.7616,123.109 36,119.5C 32.7515,117.793 29.5849,115.96 26.5,114C 12.1688,99.8069 12.0021,85.6403 26,71.5C 25.5572,57.3938 23.8905,43.3938 21,29.5C 19.4605,23.2853 20.6271,17.7853 24.5,13C 32.1517,10.6015 36.9851,13.4349 39,21.5C 41.3333,31.5 43.6667,41.5 46,51.5C 46.0692,37.1121 46.7359,22.7788 48,8.5C 53.2301,-1.08929 59.2301,-1.75596 66,6.5C 66.4998,16.828 66.6665,27.1613 66.5,37.5 Z"/></g>
<g><path style="opacity:1" fill="#f5cda8" d="M 89.5,56.5 C 94.938,55.4508 97.938,57.6175 98.5,63C 98.1124,69.5096 95.4458,74.8429 90.5,79C 84.5168,80.2599 81.5168,77.7599 81.5,71.5C 81.9235,65.1741 84.5902,60.1741 89.5,56.5 Z"/></g>
<g><path style="opacity:1" fill="#f7cea9" d="M 82.5,130.5 C 67.8333,130.5 53.1667,130.5 38.5,130.5C 39.0508,127.193 39.3841,123.86 39.5,120.5C 41.1667,120.5 42.8333,120.5 44.5,120.5C 44.5,119.5 44.5,118.5 44.5,117.5C 42.8008,117.66 41.1341,117.494 39.5,117C 22.2867,110.736 16.12,98.9028 21,81.5C 30.4979,70.1706 42.6645,65.004 57.5,66C 58.972,70.034 58.472,73.8673 56,77.5C 51.0839,81.043 45.9172,84.2097 40.5,87C 39.269,88.1827 39.269,89.3493 40.5,90.5C 45.8739,88.2502 50.8739,89.0835 55.5,93C 60.5604,97.9662 63.8937,103.8 65.5,110.5C 66.162,98.6221 60.8286,90.4555 49.5,86C 53.2714,82.8528 57.4381,80.6861 62,79.5C 68.8285,80.1813 75.3285,81.848 81.5,84.5C 81.67,83.1779 81.3366,82.0113 80.5,81C 74.5347,78.0049 68.2014,76.5049 61.5,76.5C 64.4328,69.4396 62.4328,64.6063 55.5,62C 46.8774,61.8179 38.8774,63.9845 31.5,68.5C 28.9448,56.2245 26.4448,43.8912 24,31.5C 23.3333,27.1667 23.3333,22.8333 24,18.5C 27.9786,14.3562 31.6453,14.6896 35,19.5C 38.0776,30.7229 40.5776,42.0562 42.5,53.5C 39.538,53.1167 38.538,54.1167 39.5,56.5C 42.9756,56.1784 46.1422,55.1784 49,53.5C 49.3333,40.1667 49.6667,26.8333 50,13.5C 50.2494,10.8232 51.2494,8.48991 53,6.5C 57.1179,3.40786 60.4512,4.07453 63,8.5C 63.4194,24.1708 63.2528,39.8375 62.5,55.5C 61.325,55.281 60.325,55.6143 59.5,56.5C 63.9671,59.6751 67.4671,59.0085 70,54.5C 72.9992,41.841 75.9992,29.1743 79,16.5C 79.7065,14.9194 80.5399,13.4194 81.5,12C 88.0012,9.4872 90.6678,11.8205 89.5,19C 88.2004,31.3242 86.2004,43.4908 83.5,55.5C 77.4383,55.525 77.1049,56.6916 82.5,59C 78.5083,65.1003 77.675,71.6003 80,78.5C 84.0034,84.171 88.6701,84.8377 94,80.5C 95.1278,93.5796 90.2945,103.913 79.5,111.5C 78.6143,112.325 78.281,113.325 78.5,114.5C 79.5,114.5 80.5,114.5 81.5,114.5C 81.3921,119.87 81.7255,125.203 82.5,130.5 Z"/></g>
<g><path style="opacity:1" fill="#484848" d="M 66.5,37.5 C 66.1795,42.6946 66.5128,47.6946 67.5,52.5C 67.44,53.0431 67.1067,53.3764 66.5,53.5C 65.1853,48.0136 65.1853,42.6803 66.5,37.5 Z"/></g>
</svg>
